<?xml version="1.0" encoding="UTF-8"?>
<svg version="1.1" xmlns="http://www.w3.org/2000/svg" width="841" height="827">
<path d="M0 0 C277.53 0 555.06 0 841 0 C841 272.91 841 545.82 841 827 C563.47 827 285.94 827 0 827 C0 554.09 0 281.18 0 0 Z " fill="#151515" transform="translate(0,0)"/>
<path d="M0 0 C277.53 0 555.06 0 841 0 C841 272.91 841 545.82 841 827 C563.47 827 285.94 827 0 827 C0 554.09 0 281.18 0 0 Z M206 26 C203.57079141 29.64381288 203.75714435 31.33612445 203.77294922 35.67456055 C203.77265717 36.347995 203.77236511 37.02142944 203.77206421 37.715271 C203.77345656 39.93921839 203.78901297 42.16282995 203.8046875 44.38671875 C203.80841797 45.92942624 203.81126478 47.4721361 203.81326294 49.0148468 C203.82089671 53.07388864 203.84054294 57.1327872 203.8626709 61.19177246 C203.88313488 65.3342088 203.89226584 69.4766683 203.90234375 73.61914062 C203.92378912 81.74615948 203.95792192 89.87306191 204 98 C203.38279587 97.97101624 202.76559174 97.94203247 202.12968445 97.91217041 C190.02431522 97.3493818 177.93256768 96.80499747 165.8125 96.75 C164.63365234 96.729375 163.45480469 96.70875 162.24023438 96.6875 C145.97931721 96.61558881 131.96844663 101.70204991 119.55078125 112.3046875 C109.95342292 122.44584715 106.67697266 133.97213569 106.76953125 147.59375 C106.76998947 148.69924194 106.77044769 149.80473389 106.7709198 150.94372559 C106.77393145 153.27352985 106.78178505 155.60333228 106.79418945 157.93310547 C106.81243855 161.48802878 106.81469894 165.04269097 106.81445312 168.59765625 C106.81936939 170.86718974 106.82519819 173.13672147 106.83203125 175.40625 C106.83314407 176.46372437 106.8342569 177.52119873 106.83540344 178.61071777 C106.84178329 179.60865356 106.84816315 180.60658936 106.85473633 181.63476562 C106.85854813 182.50411743 106.86235992 183.37346924 106.86628723 184.26916504 C107.02711396 187.55375229 107.4961639 190.75207137 108 194 C106.71333687 193.99333817 106.71333687 193.99333817 105.40068054 193.98654175 C97.32246406 193.94649083 89.24428086 193.91602874 81.16598797 193.89637566 C77.01271522 193.88593221 72.85952441 193.87176281 68.70629883 193.84912109 C64.69925441 193.82741266 60.69228888 193.8154356 56.6851902 193.81024551 C55.15535045 193.80654616 53.62551508 193.79932235 52.09570885 193.78853989 C49.95523067 193.77405137 47.81507975 193.77202092 45.67456055 193.77294922 C44.45544479 193.768508 43.23632904 193.76406677 41.98027039 193.75949097 C38.8156548 193.77191594 38.8156548 193.77191594 36 196 C36.30759178 197.97993541 36.6212068 199.95893599 36.9375 201.9375 C37.19853516 203.59072266 37.19853516 203.59072266 37.46484375 205.27734375 C37.71845136 207.90426929 37.71845136 207.90426929 39 209 C41.14743549 209.09425595 43.29801026 209.11742648 45.44750977 209.11352539 C46.12065216 209.11367142 46.79379456 209.11381744 47.48733521 209.1139679 C49.72205784 209.11326878 51.9566981 209.10547652 54.19140625 209.09765625 C55.73697362 209.09579206 57.28254157 209.09436816 58.82810974 209.09336853 C62.90357077 209.0895434 66.97899637 209.07971317 71.05444336 209.06866455 C75.94027728 209.05665566 80.82612302 209.05204817 85.71196747 209.04621124 C93.14133631 209.0365014 100.57062737 209.01734484 108 209 C108 222.86 108 236.72 108 251 C85.23 251 62.46 251 39 251 C35.80982452 258.34941439 35.80982452 258.34941439 37 265 C41.85379595 269.59833301 45.77894518 270.15142684 52.21875 270.1328125 C52.94137024 270.13413177 53.66399048 270.13545105 54.4085083 270.1368103 C56.77238194 270.13873215 59.13613831 270.13237629 61.5 270.125 C62.70203064 270.12367065 62.70203064 270.12367065 63.92834473 270.12231445 C78.64362434 270.10320275 93.29723551 269.6534562 108 269 C108 282.86 108 296.72 108 311 C103.05386719 310.97679687 98.10773438 310.95359375 93.01171875 310.9296875 C89.88085414 310.91947012 86.75001004 310.90984231 83.61914062 310.90234375 C78.64815001 310.89038168 73.67723297 310.87622063 68.70629883 310.84912109 C64.69925441 310.82741266 60.69228888 310.8154356 56.6851902 310.81024551 C55.15535045 310.80654616 53.62551508 310.79932235 52.09570885 310.78853989 C49.95523067 310.77405137 47.81507975 310.77202092 45.67456055 310.77294922 C44.45544479 310.768508 43.23632904 310.76406677 41.98027039 310.75949097 C38.8156548 310.77191594 38.8156548 310.77191594 36 313 C36.11674901 314.35490296 36.24393423 315.70890696 36.375 317.0625 C36.47941406 318.19365234 36.47941406 318.19365234 36.5859375 319.34765625 C37.09749423 322.62451493 38.08887409 325.81105932 39 329 C61.77 329 84.54 329 108 329 C108 341.87 108 354.74 108 368 C102.823125 367.835 97.64625 367.67 92.3125 367.5 C88.29223744 367.38931412 84.27201508 367.28508929 80.25146484 367.18614197 C76.37539561 367.08974145 72.50006965 366.98694003 68.625 366.85595703 C64.6880472 366.72353599 60.75092609 366.64055473 56.8125 366.5625 C55.63405518 366.51609375 54.45561035 366.4696875 53.24145508 366.421875 C46.40900773 366.33415812 42.49035133 367.12449799 37.29956055 371.70288086 C36.87070557 372.13093018 36.44185059 372.55897949 36 373 C36.30759178 374.97993541 36.6212068 376.95893599 36.9375 378.9375 C37.11152344 380.03964844 37.28554688 381.14179688 37.46484375 382.27734375 C37.71845136 384.90426929 37.71845136 384.90426929 39 386 C41.14743549 386.09425595 43.29801026 386.11742648 45.44750977 386.11352539 C46.12065216 386.11367142 46.79379456 386.11381744 47.48733521 386.1139679 C49.72205784 386.11326878 51.9566981 386.10547652 54.19140625 386.09765625 C55.73697362 386.09579206 57.28254157 386.09436816 58.82810974 386.09336853 C62.90357077 386.0895434 66.97899637 386.07971317 71.05444336 386.06866455 C75.94027728 386.05665566 80.82612302 386.05204817 85.71196747 386.04621124 C93.14133631 386.0365014 100.57062737 386.01734484 108 386 C108 399.86 108 413.72 108 428 C103.05386719 427.97679687 98.10773438 427.95359375 93.01171875 427.9296875 C89.88085414 427.91947012 86.75001004 427.90984231 83.61914062 427.90234375 C78.64815001 427.89038168 73.67723297 427.87622063 68.70629883 427.84912109 C64.69925441 427.82741266 60.69228888 427.8154356 56.6851902 427.81024551 C55.15535045 427.80654616 53.62551508 427.79932235 52.09570885 427.78853989 C49.95523067 427.77405137 47.81507975 427.77202092 45.67456055 427.77294922 C44.45544479 427.768508 43.23632904 427.76406677 41.98027039 427.75949097 C38.8156548 427.77191594 38.8156548 427.77191594 36 430 C36.11674901 431.35490296 36.24393423 432.70890696 36.375 434.0625 C36.47941406 435.19365234 36.47941406 435.19365234 36.5859375 436.34765625 C37.09749423 439.62451493 38.08887409 442.81105932 39 446 C61.77 446 84.54 446 108 446 C108 459.86 108 473.72 108 488 C103.05386719 487.97679687 98.10773438 487.95359375 93.01171875 487.9296875 C89.88085414 487.91947012 86.75001004 487.90984231 83.61914062 487.90234375 C78.64815001 487.89038168 73.67723297 487.87622063 68.70629883 487.84912109 C64.69925441 487.82741266 60.69228888 487.8154356 56.6851902 487.81024551 C55.15535045 487.80654616 53.62551508 487.79932235 52.09570885 487.78853989 C49.95523067 487.77405137 47.81507975 487.77202092 45.67456055 487.77294922 C44.45544479 487.768508 43.23632904 487.76406677 41.98027039 487.75949097 C38.8156548 487.77191594 38.8156548 487.77191594 36 490 C36.11674901 491.35490296 36.24393423 492.70890696 36.375 494.0625 C36.47941406 495.19365234 36.47941406 495.19365234 36.5859375 496.34765625 C37.09749423 499.62451493 38.08887409 502.81105932 39 506 C61.77 506 84.54 506 108 506 C108 519.86 108 533.72 108 548 C103.05386719 547.97679687 98.10773438 547.95359375 93.01171875 547.9296875 C89.88085414 547.91947012 86.75001004 547.90984231 83.61914062 547.90234375 C78.64815001 547.89038168 73.67723297 547.87622063 68.70629883 547.84912109 C64.69925441 547.82741266 60.69228888 547.8154356 56.6851902 547.81024551 C55.15535045 547.80654616 53.62551508 547.79932235 52.09570885 547.78853989 C49.95523067 547.77405137 47.81507975 547.77202092 45.67456055 547.77294922 C44.45544479 547.768508 43.23632904 547.76406677 41.98027039 547.75949097 C38.8156548 547.77191594 38.8156548 547.77191594 36 550 C36.30759178 551.97993541 36.6212068 553.95893599 36.9375 555.9375 C37.11152344 557.03964844 37.28554688 558.14179687 37.46484375 559.27734375 C37.71845136 561.90426929 37.71845136 561.90426929 39 563 C41.14743549 563.09425595 43.29801026 563.11742648 45.44750977 563.11352539 C46.12065216 563.11367142 46.79379456 563.11381744 47.48733521 563.1139679 C49.72205784 563.11326878 51.9566981 563.10547652 54.19140625 563.09765625 C55.73697362 563.09579206 57.28254157 563.09436816 58.82810974 563.09336853 C62.90357077 563.0895434 66.97899637 563.07971317 71.05444336 563.06866455 C75.94027728 563.05665566 80.82612302 563.05204817 85.71196747 563.04621124 C93.14133631 563.0365014 100.57062737 563.01734484 108 563 C108 576.86 108 590.72 108 605 C100.56339844 604.94779297 100.56339844 604.94779297 92.9765625 604.89453125 C89.8411341 604.87920784 86.70575168 604.86476642 83.5703125 604.85351562 C78.59039761 604.83556191 73.61064774 604.81429265 68.63085938 604.77368164 C64.61732548 604.74115436 60.60396846 604.72316109 56.59031296 604.71536827 C55.05683989 604.70981277 53.52337682 604.69896456 51.98997879 604.68280983 C49.84678254 604.66112286 47.70432296 604.65802928 45.56103516 604.65942383 C44.33969879 604.65276199 43.11836243 604.64610016 41.86001587 604.63923645 C40.91621063 604.75828842 39.9724054 604.87734039 39 605 C36.52993908 608.70509138 36.51022485 611.70726487 37 616 C37.66 618.31 38.32 620.62 39 623 C61.77 623 84.54 623 108 623 C107.8125 647.875 107.8125 647.875 107.72973633 655.66748047 C107.7209643 657.73404472 107.71332206 659.80061421 107.70703125 661.8671875 C107.69168335 662.91720947 107.67633545 663.96723145 107.66052246 665.04907227 C107.65534745 679.81164393 113.79949807 693.3127942 124 704 C138.25704128 716.07509409 154.33973902 720.5802289 172.75 720.25 C173.884375 720.24484375 175.01875 720.2396875 176.1875 720.234375 C185.50152132 720.15084118 194.67804484 719.5483503 204 719 C204 741.77 204 764.54 204 788 C209.94 789.485 209.94 789.485 216 791 C219.68247977 787.80809279 221.70534364 785.73002884 222.53631592 780.85110474 C222.69370618 776.92540152 222.67545166 773.02336925 222.5859375 769.09765625 C222.57473211 767.65036282 222.56619827 766.20304647 222.56021118 764.75572205 C222.53741725 760.9657694 222.47858032 757.1772197 222.4119873 753.38781738 C222.33950258 748.83084859 222.31221334 744.27340787 222.27726746 739.71602631 C222.21929 732.80971165 222.10426316 725.90646862 222 719 C235.86 719 249.72 719 264 719 C263.97679687 723.94613281 263.95359375 728.89226563 263.9296875 733.98828125 C263.91947012 737.11914586 263.90984231 740.24998996 263.90234375 743.38085938 C263.89038168 748.35184999 263.87622063 753.32276703 263.84912109 758.29370117 C263.82741266 762.30074559 263.8154356 766.30771112 263.81024551 770.3148098 C263.80654616 771.84464955 263.79932235 773.37448492 263.78853989 774.90429115 C263.77405137 777.04476933 263.77202092 779.18492025 263.77294922 781.32543945 C263.768508 782.54455521 263.76406677 783.76367096 263.75949097 785.01972961 C263.77191594 788.1843452 263.77191594 788.1843452 266 791 C267.97993541 790.69240822 269.95893599 790.3787932 271.9375 790.0625 C273.03964844 789.88847656 274.14179688 789.71445312 275.27734375 789.53515625 C277.90426929 789.28154864 277.90426929 789.28154864 279 788 C279.09425595 785.85256451 279.11742648 783.70198974 279.11352539 781.55249023 C279.11374443 780.54277664 279.11374443 780.54277664 279.1139679 779.51266479 C279.11326878 777.27794216 279.10547652 775.0433019 279.09765625 772.80859375 C279.09579206 771.26302638 279.09436816 769.71745843 279.09336853 768.17189026 C279.0895434 764.09642923 279.07971317 760.02100363 279.06866455 755.94555664 C279.05665566 751.05972272 279.05204817 746.17387698 279.04621124 741.28803253 C279.0365014 733.85866369 279.01734484 726.42937263 279 719 C292.86 719 306.72 719 321 719 C320.94199219 723.71796875 320.88398438 728.4359375 320.82421875 733.296875 C320.79866972 736.28649273 320.77460041 739.27597579 320.75585938 742.265625 C320.72597324 747.01070114 320.69062614 751.75529472 320.62280273 756.5 C320.56846074 760.3255466 320.53857531 764.15057579 320.52561378 767.97647858 C320.51637759 769.43578488 320.49834078 770.89506296 320.47134972 772.35414886 C320.43502573 774.39915559 320.43005537 776.44202708 320.43237305 778.48730469 C320.42126999 779.65090515 320.41016693 780.81450562 320.39872742 782.0133667 C320.74789136 785.18261999 320.74789136 785.18261999 323.34797668 787.32501221 C327.12089979 789.70794757 330.24857749 791.03980506 334.75 790.9375 C337.18374461 790.20437609 337.18374461 790.20437609 338.12643433 787.85554504 C339.13643185 784.55402633 339.24025413 781.8264543 339.22705078 778.3737793 C339.22748886 777.40708061 339.22748886 777.40708061 339.22793579 776.42085266 C339.22655005 774.30516779 339.21102507 772.18984158 339.1953125 770.07421875 C339.19157967 768.60163058 339.18873397 767.12903991 339.18673706 765.65644836 C339.17912183 761.79142328 339.15949163 757.92654987 339.1373291 754.06158447 C339.11321645 749.41846602 339.10407963 744.7752967 339.09242249 740.13213348 C339.07306584 733.08798368 339.03472884 726.04416632 339 719 C352.86 719 366.72 719 381 719 C381 741.77 381 764.54 381 788 C384.96 788.99 388.92 789.98 393 791 C396.68247977 787.80809279 398.70534364 785.73002884 399.53631592 780.85110474 C399.69370618 776.92540152 399.67545166 773.02336925 399.5859375 769.09765625 C399.57473211 767.65036282 399.56619827 766.20304647 399.56021118 764.75572205 C399.53741725 760.9657694 399.47858032 757.1772197 399.4119873 753.38781738 C399.33950258 748.83084859 399.31221334 744.27340787 399.27726746 739.71602631 C399.21929 732.80971165 399.10426316 725.90646862 399 719 C412.86 719 426.72 719 441 719 C440.96519531 726.41919922 440.96519531 726.41919922 440.9296875 733.98828125 C440.91947012 737.11914586 440.90984231 740.24998996 440.90234375 743.38085938 C440.89038168 748.35184999 440.87622063 753.32276703 440.84912109 758.29370117 C440.82741266 762.30074559 440.8154356 766.30771112 440.81024551 770.3148098 C440.80654616 771.84464955 440.79932235 773.37448492 440.78853989 774.90429115 C440.77405137 777.04476933 440.77202092 779.18492025 440.77294922 781.32543945 C440.768508 782.54455521 440.76406677 783.76367096 440.75949097 785.01972961 C440.77191594 788.1843452 440.77191594 788.1843452 443 791 C444.97993541 790.69240822 446.95893599 790.3787932 448.9375 790.0625 C450.03964844 789.88847656 451.14179688 789.71445312 452.27734375 789.53515625 C454.90426929 789.28154864 454.90426929 789.28154864 456 788 C456.09425595 785.85256451 456.11742648 783.70198974 456.11352539 781.55249023 C456.11374443 780.54277664 456.11374443 780.54277664 456.1139679 779.51266479 C456.11326878 777.27794216 456.10547652 775.0433019 456.09765625 772.80859375 C456.09579206 771.26302638 456.09436816 769.71745843 456.09336853 768.17189026 C456.0895434 764.09642923 456.07971317 760.02100363 456.06866455 755.94555664 C456.05665566 751.05972272 456.05204817 746.17387698 456.04621124 741.28803253 C456.0365014 733.85866369 456.01734484 726.42937263 456 719 C469.86 719 483.72 719 498 719 C497.94779297 726.04214844 497.94779297 726.04214844 497.89453125 733.2265625 C497.87919626 736.20704375 497.86475399 739.18747611 497.85351562 742.16796875 C497.83560655 746.89512275 497.81445714 751.62210182 497.77368164 756.34912109 C497.74100149 760.16167489 497.72312883 763.974041 497.71536827 767.78672409 C497.70984023 769.23874235 497.69904526 770.69075074 497.68280983 772.14268875 C497.66091954 774.18210005 497.65803777 776.22074336 497.65942383 778.26025391 C497.64943108 779.99899277 497.64943108 779.99899277 497.63923645 781.77285767 C498.04557972 785.40772479 499.19177861 787.84659803 501 791 C503.12560437 790.69163768 505.25047065 790.37818386 507.375 790.0625 C508.55835938 789.88847656 509.74171875 789.71445312 510.9609375 789.53515625 C513.90702381 789.16537214 513.90702381 789.16537214 516 788 C516 765.23 516 742.46 516 719 C529.86 719 543.72 719 558 719 C558 741.77 558 764.54 558 788 C562.95 788.99 567.9 789.98 573 791 C573 767.24 573 743.48 573 719 C586.86 719 600.72 719 615 719 C614.91298828 726.04214844 614.91298828 726.04214844 614.82421875 733.2265625 C614.79866024 736.20706596 614.77459025 739.18743365 614.75585938 742.16796875 C614.72600976 746.89530621 614.6907611 751.62215785 614.62280273 756.34912109 C614.56833532 760.16170944 614.53854895 763.9737766 614.52561378 767.78672409 C614.51640005 769.23879574 614.49840711 770.69083998 614.47134972 772.14268875 C613.9792331 781.02877272 613.9792331 781.02877272 617.33813477 788.92749023 C619.84425306 791.28225382 619.84425306 791.28225382 623.078125 791.18359375 C624.12484375 790.93738281 625.1715625 790.69117188 626.25 790.4375 C627.30703125 790.20933594 628.3640625 789.98117187 629.453125 789.74609375 C631.91343023 789.24650304 631.91343023 789.24650304 633 788 C633.09425595 785.85256451 633.11742648 783.70198974 633.11352539 781.55249023 C633.11374443 780.54277664 633.11374443 780.54277664 633.1139679 779.51266479 C633.11326878 777.27794216 633.10547652 775.0433019 633.09765625 772.80859375 C633.09579206 771.26302638 633.09436816 769.71745843 633.09336853 768.17189026 C633.0895434 764.09642923 633.07971317 760.02100363 633.06866455 755.94555664 C633.05845032 751.78988118 633.05387089 747.63420001 633.04882812 743.47851562 C633.03809089 735.31899413 633.02101454 727.15950147 633 719 C633.58542068 719.02931107 634.17084137 719.05862213 634.77400208 719.08882141 C637.48077255 719.22348106 640.18764885 719.35589115 642.89453125 719.48828125 C643.81496216 719.53440552 644.73539307 719.58052979 645.68371582 719.62805176 C681.05089736 721.42295213 681.05089736 721.42295213 712.05859375 706.328125 C722.22646072 697.05217618 729.12333806 682.92667947 730.33154297 669.24584961 C730.42829965 665.25952446 730.39952348 661.29779063 730.3125 657.3125 C730.30283203 655.99572266 730.29316406 654.67894531 730.28320312 653.32226562 C730.16989454 643.17868402 729.56359611 633.14473 729 623 C751.77 623 774.54 623 798 623 C799.99372452 618.0156887 801 615.27257456 801 610 C798.23274804 606.34868283 796.46571593 605.20403604 791.90167236 604.56869507 C787.9165361 604.41950545 783.96238996 604.43743684 779.9765625 604.51171875 C778.50541387 604.52105353 777.03424961 604.5281665 775.56307983 604.53315735 C771.7059172 604.55217544 767.84970793 604.60122917 763.99291992 604.65667725 C759.35745443 604.7170162 754.72166871 604.7398109 750.08592224 604.76894379 C743.05662006 604.81729984 736.02940636 604.91314572 729 605 C729 591.14 729 577.28 729 563 C733.94613281 563.04640625 738.89226563 563.0928125 743.98828125 563.140625 C747.11916157 563.16105986 750.24995984 563.18031523 753.38085938 563.1953125 C758.35198003 563.21923727 763.3228064 563.24755917 768.29370117 563.30175781 C772.3007702 563.34517495 776.30752373 563.36912831 780.3148098 563.37950897 C781.84468746 563.38690787 783.37454758 563.40135619 784.90429115 563.42292023 C787.04505539 563.45190113 789.18451106 563.45595851 791.32543945 563.45410156 C792.54455521 563.46298401 793.76367096 563.47186646 795.01972961 563.48101807 C798.52080272 563.2697296 798.52080272 563.2697296 801 559 C800.01 555.37 799.02 551.74 798 548 C775.23 548 752.46 548 729 548 C729 534.14 729 520.28 729 506 C733.08375 506.165 737.1675 506.33 741.375 506.5 C752.30829139 506.88350152 763.24535897 507.18395109 774.18511963 507.28710938 C775.67964164 507.30395682 777.17410202 507.32781607 778.668396 507.35888672 C780.77794446 507.40088774 782.88617953 507.41654655 784.99609375 507.42578125 C786.20450928 507.44036377 787.4129248 507.45494629 788.65795898 507.4699707 C792.73545249 506.89657783 794.81645535 505.57414021 798 503 C799.485 501.02 799.485 501.02 801 499 C800.01 495.37 799.02 491.74 798 488 C775.23 488 752.46 488 729 488 C729 474.14 729 460.28 729 446 C733.5271875 446.03480469 738.054375 446.06960938 742.71875 446.10546875 C745.59897136 446.12081019 748.47914183 446.13525291 751.359375 446.14648438 C755.9239355 446.16436868 760.48831424 446.18545065 765.05273438 446.22631836 C768.73562096 446.2590842 772.41831244 446.276889 776.10133362 446.28463173 C777.50146045 446.29014453 778.90157746 446.30090926 780.30162048 446.31719017 C787.87918087 446.40174733 794.10880853 446.31925722 801 443 C801 439.04 801 435.08 801 431 C796.54568563 428.4458104 793.3787279 427.63000731 788.26025391 427.65942383 C787.29333618 427.65876671 787.29333618 427.65876671 786.30688477 427.65809631 C784.19645885 427.66017044 782.08684797 427.68343424 779.9765625 427.70703125 C778.50540602 427.71263215 777.03424392 427.71689991 775.56307983 427.71989441 C771.70620048 427.73130443 767.84966441 427.76073788 763.99291992 427.79400635 C759.35732618 427.83021072 754.72161714 427.84388674 750.08592224 427.86136627 C743.05704334 427.89037815 736.02891645 427.94789106 729 428 C729 414.14 729 400.28 729 386 C751.77 386 774.54 386 798 386 C799.99372452 381.0156887 801 378.27257456 801 373 C798.23274804 369.34868283 796.46571593 368.20403604 791.90167236 367.56869507 C787.9165361 367.41950545 783.96238996 367.43743684 779.9765625 367.51171875 C778.50541387 367.52105353 777.03424961 367.5281665 775.56307983 367.53315735 C771.7059172 367.55217544 767.84970793 367.60122917 763.99291992 367.65667725 C759.35745443 367.7170162 754.72166871 367.7398109 750.08592224 367.76894379 C743.05662006 367.81729984 736.02940636 367.91314572 729 368 C729 355.13 729 342.26 729 329 C733.5271875 329.03480469 738.054375 329.06960938 742.71875 329.10546875 C745.59897136 329.12081019 748.47914183 329.13525291 751.359375 329.14648438 C755.9239355 329.16436868 760.48831424 329.18545065 765.05273438 329.22631836 C768.73562096 329.2590842 772.41831244 329.276889 776.10133362 329.28463173 C777.50146045 329.29014453 778.90157746 329.30090926 780.30162048 329.31719017 C787.87918087 329.40174733 794.10880853 329.31925722 801 326 C800.01 321.05 799.02 316.1 798 311 C775.23 311 752.46 311 729 311 C729 297.14 729 283.28 729 269 C751.77 269 774.54 269 798 269 C801.66666667 258.33333333 801.66666667 258.33333333 800 253 C796.18911113 250.80784908 792.70097753 250.75640162 788.3737793 250.77294922 C787.40708061 250.77251114 787.40708061 250.77251114 786.42085266 250.77206421 C784.30516779 250.77344995 782.18984158 250.78897493 780.07421875 250.8046875 C778.60163058 250.80842033 777.12903991 250.81126603 775.65644836 250.81326294 C771.79142328 250.82087817 767.92654987 250.84050837 764.06158447 250.8626709 C759.41846602 250.88678355 754.7752967 250.89592037 750.13213348 250.90757751 C743.08798368 250.92693416 736.04416632 250.96527116 729 251 C729 237.14 729 223.28 729 209 C733.94613281 209.04640625 738.89226563 209.0928125 743.98828125 209.140625 C747.11916157 209.16105986 750.24995984 209.18031523 753.38085938 209.1953125 C758.35198003 209.21923727 763.3228064 209.24755917 768.29370117 209.30175781 C772.3007702 209.34517495 776.30752373 209.36912831 780.3148098 209.37950897 C781.84468746 209.38690787 783.37454758 209.40135619 784.90429115 209.42292023 C787.04505539 209.45190113 789.18451106 209.45595851 791.32543945 209.45410156 C793.15411308 209.46742523 793.15411308 209.46742523 795.01972961 209.48101807 C798.52080272 209.2697296 798.52080272 209.2697296 801 205 C800.01 201.37 799.02 197.74 798 194 C775.23 194 752.46 194 729 194 C729.1875 167.5625 729.1875 167.5625 729.27026367 159.26782227 C729.27903316 157.07568807 729.286676 154.88354895 729.29296875 152.69140625 C729.30831665 151.57149292 729.32366455 150.45157959 729.33947754 149.29772949 C729.34295994 138.77738671 726.59016527 130.82880006 721 122 C720.39542969 121.03707031 719.79085937 120.07414062 719.16796875 119.08203125 C711.92053017 108.47307199 702.29909284 101.33608458 689.59765625 98.4375 C675.59121372 96.0785202 661.51993795 97.01807161 647.37890625 97.5078125 C645.97888514 97.55551688 644.57886074 97.60312498 643.17883301 97.65063477 C639.78585528 97.76614661 636.39291371 97.88262547 633 98 C633.00444122 97.14222458 633.00888245 96.28444916 633.01345825 95.40068054 C633.05350917 87.32246406 633.08397126 79.24428086 633.10362434 71.16598797 C633.11406779 67.01271522 633.12823719 62.85952441 633.15087891 58.70629883 C633.17258734 54.69925441 633.1845644 50.69228888 633.18975449 46.6851902 C633.19345384 45.15535045 633.20067765 43.62551508 633.21146011 42.09570885 C633.22594863 39.95523067 633.22797908 37.81507975 633.22705078 35.67456055 C633.231492 34.45544479 633.23593323 33.23632904 633.24050903 31.98027039 C633.22808406 28.8156548 633.22808406 28.8156548 631 26 C625.36487141 26.60376378 620.62678937 27.59330266 615 29 C615 51.77 615 74.54 615 98 C602.13 97.01 589.26 96.02 576 95 C576 89.39 576 83.78 576 78 C575.89602441 74.57864307 575.77676006 71.17390959 575.59765625 67.7578125 C575.55563583 66.89791718 575.51361542 66.03802185 575.47032166 65.15206909 C575.3823462 63.36950947 575.29239948 61.587046 575.20043945 59.8046875 C575.06157323 57.106996 574.92973465 54.40902586 574.79882812 51.7109375 C574.37357503 43.12253903 573.9133696 34.5534666 573 26 C567.80055191 26.64993101 563.14959347 27.71260163 558 29 C558 51.77 558 74.54 558 98 C544.14 98 530.28 98 516 98 C516.03480469 90.58080078 516.03480469 90.58080078 516.0703125 83.01171875 C516.08052988 79.88085414 516.09015769 76.75001004 516.09765625 73.61914062 C516.10961832 68.64815001 516.12377937 63.67723297 516.15087891 58.70629883 C516.17258734 54.69925441 516.1845644 50.69228888 516.18975449 46.6851902 C516.19345384 45.15535045 516.20067765 43.62551508 516.21146011 42.09570885 C516.22594863 39.95523067 516.22797908 37.81507975 516.22705078 35.67456055 C516.231492 34.45544479 516.23593323 33.23632904 516.24050903 31.98027039 C516.22808406 28.8156548 516.22808406 28.8156548 514 26 C508.36487141 26.60376378 503.62678937 27.59330266 498 29 C498 51.77 498 74.54 498 98 C484.14 98 470.28 98 456 98 C456 75.23 456 52.46 456 29 C448.57612199 26.88165306 448.57612199 26.88165306 441 26 C439.25071099 49.00047688 437.7407245 71.92448055 438 95 C436.77796875 94.98066406 435.5559375 94.96132812 434.296875 94.94140625 C428.25505754 94.94258906 422.26780604 95.43778819 416.25 95.9375 C415.14011719 96.02451172 414.03023438 96.11152344 412.88671875 96.20117188 C408.1761766 96.58379714 403.630545 97.04323297 399 98 C399.00666183 97.18647064 399.01332367 96.37294128 399.02018738 95.53475952 C399.08038634 87.85481917 399.12601889 80.17499379 399.15543652 72.49487877 C399.17106904 68.54677613 399.1922628 64.59886903 399.22631836 60.65087891 C399.25899851 56.83832511 399.27687117 53.025959 399.28463173 49.21327591 C399.29015977 47.76125765 399.30095474 46.30924926 399.31719017 44.85731125 C399.33908046 42.81789995 399.34196223 40.77925664 399.34057617 38.73974609 C399.34723801 37.58058685 399.35389984 36.42142761 399.36076355 35.22714233 C398.95442028 31.59227521 397.80822139 29.15340197 396 26 C394.06201479 26.30947671 392.12462574 26.62268834 390.1875 26.9375 C389.10855469 27.11152344 388.02960938 27.28554688 386.91796875 27.46484375 C383.95066644 27.93871921 383.95066644 27.93871921 381 29 C381 51.77 381 74.54 381 98 C367.14 98 353.28 98 339 98 C339.03480469 90.58080078 339.03480469 90.58080078 339.0703125 83.01171875 C339.08052988 79.88085414 339.09015769 76.75001004 339.09765625 73.61914062 C339.10961832 68.64815001 339.12377937 63.67723297 339.15087891 58.70629883 C339.17258734 54.69925441 339.1845644 50.69228888 339.18975449 46.6851902 C339.19345384 45.15535045 339.20067765 43.62551508 339.21146011 42.09570885 C339.22594863 39.95523067 339.22797908 37.81507975 339.22705078 35.67456055 C339.231492 34.45544479 339.23593323 33.23632904 339.24050903 31.98027039 C339.22808406 28.8156548 339.22808406 28.8156548 337 26 C335.64509704 26.11674901 334.29109304 26.24393423 332.9375 26.375 C331.80634766 26.47941406 331.80634766 26.47941406 330.65234375 26.5859375 C327.37548507 27.09749423 324.18894068 28.08887409 321 29 C321 51.77 321 74.54 321 98 C307.14 98 293.28 98 279 98 C279 75.23 279 52.46 279 29 C271.57612199 26.88165306 271.57612199 26.88165306 264 26 C262.25071099 49.00047688 260.7407245 71.92448055 261 95 C259.69289063 95.04898438 258.38578125 95.09796875 257.0390625 95.1484375 C255.23436143 95.22363338 253.42967468 95.29917333 251.625 95.375 C250.77421875 95.4059375 249.9234375 95.436875 249.046875 95.46875 C239.92690531 95.86527042 231.15139081 96.9831788 222 98 C222 75.23 222 52.46 222 29 C211.41479115 25.83830958 211.41479115 25.83830958 206 26 Z " fill="#111111" transform="translate(0,0)"/>
<path d="M0 0 C1.28220822 0.00027238 2.56441644 0.00054477 3.88547945 0.00082541 C4.60222426 -0.00584261 5.31896907 -0.01251062 6.05743343 -0.01938069 C8.47811941 -0.03572528 10.89721324 -0.01618314 13.31786013 0.00298452 C15.06310834 -0.0013411 16.80835228 -0.00785401 18.55358505 -0.01637554 C23.36406222 -0.03343797 28.17402228 -0.01913671 32.98447251 0.00013924 C38.16655067 0.01551502 43.34856333 0.00217766 48.53064394 -0.00760508 C58.68810093 -0.02216062 68.84535863 -0.00986846 79.00279677 0.01150817 C90.82157786 0.03547184 102.64031283 0.03380666 114.45911282 0.03120226 C135.5411798 0.02750877 156.62315262 0.04836625 177.70518923 0.0824523 C198.18079938 0.11554576 218.65631069 0.12971098 239.13194704 0.12346792 C261.4071051 0.11670964 283.68222169 0.11914816 305.95737362 0.13882732 C307.72290865 0.14038655 307.72290865 0.14038655 309.52411106 0.14197728 C311.88837038 0.14406824 314.25262969 0.14617922 316.61688897 0.14831045 C324.86299559 0.155217 333.10908947 0.15587355 341.35519838 0.15442801 C351.39897656 0.15299088 361.44267394 0.16263195 371.48642528 0.18637437 C376.61482581 0.19826511 381.7431135 0.20533916 386.87152719 0.1995368 C391.56062942 0.1943881 396.24949264 0.2029708 400.93855387 0.2228114 C402.64038397 0.22757513 404.34223717 0.22722094 406.04406399 0.22140104 C408.34688408 0.21428324 410.64889822 0.2254005 412.95165682 0.24133444 C414.87496915 0.24369124 414.87496915 0.24369124 416.83713627 0.24609566 C419.91856813 0.62444448 419.91856813 0.62444448 421.83040488 1.71295691 C423.51111521 4.66532358 423.2948079 7.21204239 423.29609156 10.5913558 C423.30045188 11.30810061 423.3048122 12.02484542 423.30930465 12.76330978 C423.32032044 15.18364069 423.30980988 17.60340899 423.29951906 20.02373648 C423.30297314 21.7689811 423.30773601 23.51422355 423.3137008 25.2594614 C423.32627489 30.06981614 423.32001142 34.87999332 423.31074214 39.69034886 C423.30397811 44.87241852 423.31441969 50.05445679 423.3226819 55.23652029 C423.33604981 65.3939258 423.33312792 75.55126496 423.32444398 85.70867312 C423.31767984 93.96087082 423.3167452 102.21304987 423.32001543 110.46524954 C423.32047513 111.6379547 423.32093483 112.81065987 423.32140846 114.01890156 C423.3223676 116.40093077 423.32334023 118.78295997 423.32432623 121.16498917 C423.33288908 143.52232855 423.32303197 165.87963107 423.30692513 188.2369644 C423.29352115 207.4372692 423.29584899 226.63751958 423.30968142 245.83782339 C423.32572144 268.1129747 423.33206502 290.38809369 423.32284462 312.66324997 C423.32188894 315.03671312 423.32094583 317.41017627 423.32001543 319.78363943 C423.3195526 320.95155097 423.31908978 322.11946252 423.31861293 323.32276532 C423.3160183 331.56887633 423.3204042 339.81496689 423.32745409 348.06107473 C423.33585179 358.10484319 423.3336255 368.14854128 423.31761186 378.19230163 C423.30970577 383.32070836 423.30667717 388.44899758 423.31655931 393.57740355 C423.32545853 398.26649506 423.32065273 402.95535949 423.30462666 407.64443022 C423.3012585 409.34626463 423.30301817 411.04811798 423.31025402 412.74994034 C423.31929871 415.05274901 423.31010045 417.35476672 423.29609156 419.65753317 C423.29536097 421.5808455 423.29536097 421.5808455 423.29461563 423.54301262 C422.91856813 426.62444448 422.91856813 426.62444448 421.83040488 428.53628123 C418.87778578 430.21682829 416.33114028 430.00068418 412.95165682 430.00196791 C412.23491201 430.00632823 411.51816719 430.01068855 410.77970284 430.01518101 C408.35937193 430.02619679 405.93960363 430.01568623 403.51927614 430.00539541 C401.77403152 430.00884949 400.02878907 430.01361236 398.28355122 430.01957715 C393.47319648 430.03215124 388.6630193 430.02588777 383.85266376 430.01661849 C378.6705941 430.00985446 373.48855583 430.02029604 368.30649233 430.02855825 C358.14908682 430.04192616 347.99174766 430.03900427 337.8343395 430.03032033 C329.5821418 430.02355619 321.32996275 430.02262155 313.07776308 430.02589178 C311.31870533 430.02658133 311.31870533 430.02658133 309.52411106 430.02728481 C307.14208185 430.02824395 304.76005265 430.02921658 302.37802345 430.03020258 C280.02068407 430.03876543 257.66338155 430.02890832 235.30604821 430.01280148 C216.10574342 429.9993975 196.90549304 430.00172534 177.70518923 430.01555777 C155.43003791 430.03159779 133.15491893 430.03794137 110.87976265 430.02872097 C108.5062995 430.02776529 106.13283635 430.02682218 103.75937319 430.02589178 C102.00750587 430.02519754 102.00750587 430.02519754 100.2202473 430.02448928 C91.97413629 430.02189465 83.72804573 430.02628055 75.48193789 430.03333044 C65.43816943 430.04172814 55.39447134 430.03950186 45.35071099 430.02348821 C40.22230426 430.01558212 35.09401504 430.01255352 29.96560907 430.02243567 C25.27651756 430.03133488 20.58765313 430.02652908 15.8985824 430.01050301 C14.19674799 430.00713485 12.49489464 430.00889452 10.79307228 430.01613037 C8.49026361 430.02517506 6.1882459 430.0159768 3.88547945 430.00196791 C2.60327123 430.00148085 1.32106301 430.00099379 0 430.00049198 C-3.08143187 429.62444448 -3.08143187 429.62444448 -4.99326861 428.53397989 C-6.6698144 425.59193647 -6.45766844 423.06315252 -6.45895529 419.69435453 C-6.46331561 418.98158566 -6.46767593 418.26881679 -6.47216839 417.53444886 C-6.48318387 415.12762231 -6.47267374 412.72136158 -6.46238279 410.31453848 C-6.46583689 408.57896882 -6.47059978 406.84340136 -6.47656453 405.10783851 C-6.48913854 400.32414783 -6.48287516 395.54063568 -6.47360587 390.75694418 C-6.46684171 385.60346633 -6.47728355 380.45002003 -6.48554564 375.29654837 C-6.49891396 365.19461969 -6.49599129 355.09275772 -6.48730771 344.99082638 C-6.48054299 336.7825055 -6.47960919 328.57420336 -6.48287916 320.36588049 C-6.48333886 319.19930349 -6.48379856 318.03272649 -6.48427219 316.83079868 C-6.48523133 314.46117493 -6.48620397 312.09155119 -6.48718996 309.72192745 C-6.49575313 287.47993551 -6.4858956 265.2379806 -6.46978886 242.99599473 C-6.45638837 223.89979535 -6.45870978 204.80365069 -6.47254515 185.7074523 C-6.48859067 163.55020905 -6.49492536 141.39299832 -6.48570836 119.23575008 C-6.48475268 116.87404673 -6.48380957 114.51234337 -6.48287916 112.15064001 C-6.48241634 110.98853811 -6.48195351 109.82643621 -6.48147666 108.62911911 C-6.47888342 100.42903232 -6.48326502 92.2289661 -6.49031782 84.0288825 C-6.49872177 74.03787194 -6.49647613 64.04693211 -6.48047559 54.05592968 C-6.47257744 48.95562869 -6.46952749 43.85544573 -6.47942305 38.75514555 C-6.48833873 34.08938781 -6.48348885 29.42385791 -6.46749039 24.75812094 C-6.46412925 23.06701804 -6.46586643 21.37589604 -6.47311775 19.68480535 C-6.48219905 17.39166618 -6.4729262 15.09931433 -6.45895529 12.80621672 C-6.45846823 11.53084346 -6.45798117 10.25547021 -6.45747936 8.94144928 C-5.89374914 3.96895011 -5.20705346 1.0551964 0 0 Z " fill="#121212" transform="translate(210.08143186569214,193.3755555152893)"/>
<path d="M0 0 C5.63512859 0.60376378 10.37321063 1.59330266 16 3 C16 25.77 16 48.54 16 72 C24.91 71.01 24.91 71.01 34 70 C37.88459609 69.74676065 41.73911045 69.51630507 45.625 69.375 C46.54539063 69.33632812 47.46578125 69.29765625 48.4140625 69.2578125 C50.60915177 69.16635045 52.8045472 69.08227535 55 69 C54.98912354 67.93773193 54.97824707 66.87546387 54.96704102 65.78100586 C54.89115226 54.88106516 55.21968821 44.04017271 55.79956055 33.15649414 C55.93869012 30.54011947 56.0704411 27.92344717 56.20117188 25.30664062 C56.63205518 16.85336297 57.11120255 8.4202493 58 0 C60.12560437 0.30836232 62.25047065 0.62181614 64.375 0.9375 C65.55835938 1.11152344 66.74171875 1.28554688 67.9609375 1.46484375 C71 2 71 2 73 3 C73 25.77 73 48.54 73 72 C86.86 72 100.72 72 115 72 C115 49.23 115 26.46 115 3 C126 0 126 0 131 0 C133.42920859 3.64381288 133.24285565 5.33612445 133.22705078 9.67456055 C133.22734283 10.347995 133.22763489 11.02142944 133.22793579 11.715271 C133.22654344 13.93921839 133.21098703 16.16282995 133.1953125 18.38671875 C133.19158203 19.92942624 133.18873522 21.4721361 133.18673706 23.0148468 C133.17910329 27.07388864 133.15945706 31.1327872 133.1373291 35.19177246 C133.11326674 40.06261484 133.10408846 44.93350514 133.09242249 49.80438995 C133.07303245 57.20302627 133.0347083 64.60134824 133 72 C146.86 72 160.72 72 175 72 C175 49.23 175 26.46 175 3 C188 0 188 0 191 1 C193.1137878 4.8704028 193.24369804 8.27296362 193.22705078 12.6262207 C193.22734283 13.27068649 193.22763489 13.91515228 193.22793579 14.57914734 C193.22655005 16.69483221 193.21102507 18.81015842 193.1953125 20.92578125 C193.19157967 22.39836942 193.18873397 23.87096009 193.18673706 25.34355164 C193.17912183 29.20857672 193.15949163 33.07345013 193.1373291 36.93841553 C193.11682508 40.88665719 193.10772562 44.8349235 193.09765625 48.78320312 C193.0762436 56.52220437 193.04213333 64.26108088 193 72 C193.76890564 71.84112808 194.53781128 71.68225616 195.33001709 71.51856995 C200.25017184 70.56296668 205.25862134 70.32881017 210.25 69.9375 C211.89162109 69.80118164 211.89162109 69.80118164 213.56640625 69.66210938 C215.18095703 69.53352539 215.18095703 69.53352539 216.828125 69.40234375 C218.2807373 69.28620728 218.2807373 69.28620728 219.76269531 69.16772461 C223.84486241 68.95622772 227.91346384 68.96700273 232 69 C231.98912354 67.93773193 231.97824707 66.87546387 231.96704102 65.78100586 C231.89115226 54.88106516 232.21968821 44.04017271 232.79956055 33.15649414 C232.93869012 30.54011947 233.0704411 27.92344717 233.20117188 25.30664062 C233.63205518 16.85336297 234.11120255 8.4202493 235 0 C237.12560437 0.30836232 239.25047065 0.62181614 241.375 0.9375 C242.55835938 1.11152344 243.74171875 1.28554688 244.9609375 1.46484375 C248 2 248 2 250 3 C250 25.77 250 48.54 250 72 C263.86 72 277.72 72 292 72 C292 49.23 292 26.46 292 3 C303 0 303 0 308 0 C310.42920859 3.64381288 310.24285565 5.33612445 310.22705078 9.67456055 C310.22734283 10.347995 310.22763489 11.02142944 310.22793579 11.715271 C310.22654344 13.93921839 310.21098703 16.16282995 310.1953125 18.38671875 C310.19158203 19.92942624 310.18873522 21.4721361 310.18673706 23.0148468 C310.17910329 27.07388864 310.15945706 31.1327872 310.1373291 35.19177246 C310.11326674 40.06261484 310.10408846 44.93350514 310.09242249 49.80438995 C310.07303245 57.20302627 310.0347083 64.60134824 310 72 C323.86 72 337.72 72 352 72 C352 49.23 352 26.46 352 3 C363 0 363 0 367 0 C368.00908513 9.44981739 368.46955806 18.92441788 368.92993164 28.41308594 C369.06120783 31.09856653 369.19935328 33.78363547 369.33789062 36.46875 C369.42490075 38.23175008 369.51150185 39.9947704 369.59765625 41.7578125 C369.63826675 42.532388 369.67887726 43.3069635 369.72071838 44.10501099 C370.11130531 52.4237486 370 60.63755103 370 69 C382.87 69.99 395.74 70.98 409 72 C409 49.23 409 26.46 409 3 C420 0 420 0 425 0 C427.42920859 3.64381288 427.24285565 5.33612445 427.22705078 9.67456055 C427.22734283 10.347995 427.22763489 11.02142944 427.22793579 11.715271 C427.22654344 13.93921839 427.21098703 16.16282995 427.1953125 18.38671875 C427.19158203 19.92942624 427.18873522 21.4721361 427.18673706 23.0148468 C427.17910329 27.07388864 427.15945706 31.1327872 427.1373291 35.19177246 C427.11686512 39.3342088 427.10773416 43.4766683 427.09765625 47.61914062 C427.07621088 55.74615948 427.04207808 63.87306191 427 72 C427.85903931 71.97101624 428.71807861 71.94203247 429.60314941 71.91217041 C432.83393442 71.80333172 436.06472982 71.69480763 439.29553223 71.58648682 C440.68567309 71.53981648 442.07580992 71.49302591 443.46594238 71.44610596 C474.94492992 70.38396628 474.94492992 70.38396628 488 74 C488.73347656 74.18175781 489.46695313 74.36351563 490.22265625 74.55078125 C503.88613967 78.67507707 511.97885401 90.12569642 518.62890625 101.87890625 C521.74496555 107.83581734 523.12936483 112.76121755 523.11352539 119.5246582 C523.11334412 121.16827332 523.11334412 121.16827332 523.11315918 122.84509277 C523.10548523 124.55565857 523.10548523 124.55565857 523.09765625 126.30078125 C523.09664917 127.35728882 523.09564209 128.41379639 523.09460449 129.50231934 C523.08938279 133.43905731 523.07542153 137.37577977 523.0625 141.3125 C523.041875 150.119375 523.02125 158.92625 523 168 C545.77 168 568.54 168 592 168 C593.485 173.94 593.485 173.94 595 180 C592 183 592 183 589.01972961 183.36076355 C587.19105598 183.3507708 587.19105598 183.3507708 585.32543945 183.34057617 C584.652005 183.34101425 583.97857056 183.34145233 583.284729 183.34190369 C581.06061731 183.33981501 578.83726112 183.3164815 576.61328125 183.29296875 C575.07057609 183.28737305 573.5278656 183.28310283 571.9851532 183.28010559 C567.92602809 183.26865471 563.86722534 183.23918569 559.80822754 183.20599365 C554.93742281 183.16990038 550.06651025 183.15613275 545.19561005 183.13863373 C537.7968492 183.10954818 530.3987956 183.05206346 523 183 C523 196.86 523 210.72 523 225 C527.69476562 224.96519531 532.38953125 224.93039063 537.2265625 224.89453125 C540.20704375 224.87919626 543.18747611 224.86475399 546.16796875 224.85351562 C550.89512275 224.83560655 555.62210182 224.81445714 560.34912109 224.77368164 C564.16167489 224.74100149 567.974041 224.72312883 571.78672409 224.71536827 C573.23874235 224.70984023 574.69075074 224.69904526 576.14268875 224.68280983 C578.18210005 224.66091954 580.22074336 224.65803777 582.26025391 224.65942383 C583.99899277 224.64943108 583.99899277 224.64943108 585.77285767 224.63923645 C589.40772479 225.04557972 591.84659803 226.19177861 595 228 C594.69163768 230.12560437 594.37818386 232.25047065 594.0625 234.375 C593.88847656 235.55835938 593.71445312 236.74171875 593.53515625 237.9609375 C593 241 593 241 592 243 C569.23 243 546.46 243 523 243 C523 256.86 523 270.72 523 285 C545.77 285 568.54 285 592 285 C592.99 289.95 593.98 294.9 595 300 C587.51082762 303.6072847 580.3979912 303.38808404 572.21875 303.29296875 C570.79529266 303.28736409 569.37182948 303.28309811 567.94836426 303.28010559 C564.22631473 303.2687251 560.50462395 303.23931791 556.78271484 303.20599365 C552.30392875 303.1697083 547.8250218 303.15609916 543.34613037 303.13863373 C536.56383844 303.10967518 529.78233157 303.05214207 523 303 C523 315.87 523 328.74 523 342 C527.69476562 341.94199219 532.38953125 341.88398438 537.2265625 341.82421875 C540.20706596 341.79866024 543.18743365 341.77459025 546.16796875 341.75585938 C550.89530621 341.72600976 555.62215785 341.6907611 560.34912109 341.62280273 C564.16170944 341.56833532 567.9737766 341.53854895 571.78672409 341.52561378 C573.23879574 341.51640005 574.69083998 341.49840711 576.14268875 341.47134972 C588.94555591 341.24231428 588.94555591 341.24231428 592.92749023 344.33813477 C595 347 595 347 595.18359375 350.078125 C594.93738281 351.12484375 594.69117188 352.1715625 594.4375 353.25 C594.09525391 354.83554687 594.09525391 354.83554687 593.74609375 356.453125 C593 359 593 359 592 360 C589.85256451 360.09425595 587.70198974 360.11742648 585.55249023 360.11352539 C584.54277664 360.11374443 584.54277664 360.11374443 583.51266479 360.1139679 C581.27794216 360.11326878 579.0433019 360.10547652 576.80859375 360.09765625 C575.26302638 360.09579206 573.71745843 360.09436816 572.17189026 360.09336853 C568.09642923 360.0895434 564.02100363 360.07971317 559.94555664 360.06866455 C555.05972272 360.05665566 550.17387698 360.05204817 545.28803253 360.04621124 C537.85866369 360.0365014 530.42937263 360.01734484 523 360 C523 373.86 523 387.72 523 402 C527.69476562 401.96519531 532.38953125 401.93039062 537.2265625 401.89453125 C540.20704375 401.87919626 543.18747611 401.86475399 546.16796875 401.85351562 C550.89512275 401.83560655 555.62210182 401.81445714 560.34912109 401.77368164 C564.16167489 401.74100149 567.974041 401.72312883 571.78672409 401.71536827 C573.23874235 401.70984023 574.69075074 401.69904526 576.14268875 401.68280983 C578.18210005 401.66091954 580.22074336 401.65803777 582.26025391 401.65942383 C583.99899277 401.64943108 583.99899277 401.64943108 585.77285767 401.63923645 C589.40772479 402.04557972 591.84659803 403.19177861 595 405 C595 408.96 595 412.92 595 417 C587.51082762 420.6072847 580.3979912 420.38808404 572.21875 420.29296875 C570.79529266 420.28736409 569.37182948 420.28309811 567.94836426 420.28010559 C564.22631473 420.2687251 560.50462395 420.23931791 556.78271484 420.20599365 C552.30392875 420.1697083 547.8250218 420.15609916 543.34613037 420.13863373 C536.56383844 420.10967518 529.78233157 420.05214207 523 420 C523 433.86 523 447.72 523 462 C545.77 462 568.54 462 592 462 C592.99 465.96 593.98 469.92 595 474 C586.81268172 481.12599924 586.81268172 481.12599924 579.38671875 481.1328125 C578.37559273 481.13479141 578.37559273 481.13479141 577.34403992 481.1368103 C575.12514779 481.13873924 572.90637951 481.13235691 570.6875 481.125 C569.93422424 481.12411377 569.18094849 481.12322754 568.40484619 481.12231445 C553.25002252 481.10142732 538.14404347 480.61188054 523 480 C523 493.86 523 507.72 523 522 C545.77 522 568.54 522 592 522 C593.485 527.94 593.485 527.94 595 534 C592 537 592 537 589.01972961 537.36076355 C587.80061386 537.35410172 586.58149811 537.34743988 585.32543945 537.34057617 C584.31528778 537.34123329 584.31528778 537.34123329 583.284729 537.34190369 C581.06061731 537.33981501 578.83726112 537.3164815 576.61328125 537.29296875 C575.07057609 537.28737305 573.5278656 537.28310283 571.9851532 537.28010559 C567.92602809 537.26865471 563.86722534 537.23918569 559.80822754 537.20599365 C554.93742281 537.16990038 550.06651025 537.15613275 545.19561005 537.13863373 C537.7968492 537.10954818 530.3987956 537.05206346 523 537 C523 550.86 523 564.72 523 579 C527.69476562 578.94199219 532.38953125 578.88398437 537.2265625 578.82421875 C540.20706596 578.79866024 543.18743365 578.77459025 546.16796875 578.75585938 C550.89530621 578.72600976 555.62215785 578.6907611 560.34912109 578.62280273 C564.16170944 578.56833532 567.9737766 578.53854895 571.78672409 578.52561378 C573.23879574 578.51640005 574.69083998 578.49840711 576.14268875 578.47134972 C588.94555591 578.24231428 588.94555591 578.24231428 592.92749023 581.33813477 C595 584 595 584 595.18359375 587.078125 C594.93738281 588.12484375 594.69117188 589.1715625 594.4375 590.25 C594.09525391 591.83554688 594.09525391 591.83554688 593.74609375 593.453125 C593 596 593 596 592 597 C589.85256451 597.09425595 587.70198974 597.11742648 585.55249023 597.11352539 C584.54277664 597.11374443 584.54277664 597.11374443 583.51266479 597.1139679 C581.27794216 597.11326878 579.0433019 597.10547652 576.80859375 597.09765625 C575.26302638 597.09579206 573.71745843 597.09436816 572.17189026 597.09336853 C568.09642923 597.0895434 564.02100363 597.07971317 559.94555664 597.06866455 C555.78988118 597.05845032 551.63420001 597.05387089 547.47851562 597.04882812 C539.31899413 597.03809089 531.15950147 597.02101454 523 597 C523.06783691 598.11157471 523.13567383 599.22314941 523.20556641 600.3684082 C523.81590513 610.6428693 524.26338617 620.8936608 524.375 631.1875 C524.41238281 632.50685547 524.44976563 633.82621094 524.48828125 635.18554688 C524.63513347 651.8206404 518.78021284 667.03849461 507.375 679.3125 C499.79122207 686.48072845 490.46362622 691.81015622 480 693 C479.08476563 693.10828125 478.16953125 693.2165625 477.2265625 693.328125 C460.52225416 694.92702605 443.71305194 693.79585962 427 693 C427 715.77 427 738.54 427 762 C422.0156887 763.99372452 419.27257456 765 414 765 C410.34868283 762.23274804 409.20403604 760.46571593 408.56869507 755.90167236 C408.41950545 751.9165361 408.43743684 747.96238996 408.51171875 743.9765625 C408.52105353 742.50541387 408.5281665 741.03424961 408.53315735 739.56307983 C408.55217544 735.7059172 408.60122917 731.84970793 408.65667725 727.99291992 C408.7170162 723.35745443 408.7398109 718.72166871 408.76894379 714.08592224 C408.81729984 707.05662006 408.91314572 700.02940636 409 693 C395.14 693 381.28 693 367 693 C367 716.76 367 740.52 367 765 C362.05 764.01 357.1 763.02 352 762 C352 739.23 352 716.46 352 693 C338.14 693 324.28 693 310 693 C310 715.77 310 738.54 310 762 C298 765 298 765 294 764 C291.80784908 760.18911113 291.75640162 756.70097753 291.77294922 752.3737793 C291.77265717 751.72931351 291.77236511 751.08484772 291.77206421 750.42085266 C291.77344995 748.30516779 291.78897493 746.18984158 291.8046875 744.07421875 C291.80842033 742.60163058 291.81126603 741.12903991 291.81326294 739.65644836 C291.82087817 735.79142328 291.84050837 731.92654987 291.8626709 728.06158447 C291.88678355 723.41846602 291.89592037 718.7752967 291.90757751 714.13213348 C291.92693416 707.08798368 291.96527116 700.04416632 292 693 C278.14 693 264.28 693 250 693 C250 715.77 250 738.54 250 762 C245.21230687 763.91507725 242.01083671 764.49042339 237 765 C234.57079141 761.35618712 234.75714435 759.66387555 234.77294922 755.32543945 C234.77265717 754.652005 234.77236511 753.97857056 234.77206421 753.284729 C234.77345656 751.06078161 234.78901297 748.83717005 234.8046875 746.61328125 C234.80841797 745.07057376 234.81126478 743.5278639 234.81326294 741.9851532 C234.82089671 737.92611136 234.84054294 733.8672128 234.8626709 729.80822754 C234.88673326 724.93738516 234.89591154 720.06649486 234.90757751 715.19561005 C234.92696755 707.79697373 234.9652917 700.39865176 235 693 C221.14 693 207.28 693 193 693 C193.06960938 697.61097656 193.13921875 702.22195313 193.2109375 706.97265625 C193.24161422 709.9030458 193.27049824 712.83323593 193.29296875 715.76367188 C193.32876498 720.40984478 193.37099692 725.05530472 193.45263672 729.70092773 C193.51808216 733.44870724 193.55375799 737.1957218 193.56926346 740.94402885 C193.58030526 742.37019321 193.6018684 743.79631814 193.63438034 745.22215462 C193.90941796 757.78998278 193.90941796 757.78998278 189.96337891 762.43139648 C188.98546387 763.27903564 188.00754883 764.1266748 187 765 C183.04 764.01 179.08 763.02 175 762 C175 739.23 175 716.46 175 693 C161.14 693 147.28 693 133 693 C133.03480469 697.69476562 133.06960938 702.38953125 133.10546875 707.2265625 C133.12080374 710.20704375 133.13524601 713.18747611 133.14648438 716.16796875 C133.16439345 720.89512275 133.18554286 725.62210182 133.22631836 730.34912109 C133.25899851 734.16167489 133.27687117 737.974041 133.28463173 741.78672409 C133.29015977 743.23874235 133.30095474 744.69075074 133.31719017 746.14268875 C133.33908046 748.18210005 133.34196223 750.22074336 133.34057617 752.26025391 C133.35056892 753.99899277 133.35056892 753.99899277 133.36076355 755.77285767 C132.95442028 759.40772479 131.80822139 761.84659803 130 765 C124.09957947 764.40995795 119.2882232 763.2882232 115 759 C114.75949097 756.25387573 114.75949097 756.25387573 114.77294922 752.71435547 C114.77265717 752.07032776 114.77236511 751.42630005 114.77206421 750.76275635 C114.77345926 748.63076373 114.78902826 746.49911918 114.8046875 744.3671875 C114.80841702 742.89031159 114.81126428 741.41343322 114.81326294 739.93655396 C114.82090426 736.04682602 114.84055692 732.15724712 114.8626709 728.26757812 C114.88671288 723.60200582 114.89590794 718.93638372 114.90757751 714.27076721 C114.92698116 707.18040778 114.96529996 700.09037544 115 693 C101.14 693 87.28 693 73 693 C73 715.77 73 738.54 73 762 C68.21230687 763.91507725 65.01083671 764.49042339 60 765 C57.57079141 761.35618712 57.75714435 759.66387555 57.77294922 755.32543945 C57.77265717 754.652005 57.77236511 753.97857056 57.77206421 753.284729 C57.77345656 751.06078161 57.78901297 748.83717005 57.8046875 746.61328125 C57.80841797 745.07057376 57.81126478 743.5278639 57.81326294 741.9851532 C57.82089671 737.92611136 57.84054294 733.8672128 57.8626709 729.80822754 C57.88673326 724.93738516 57.89591154 720.06649486 57.90757751 715.19561005 C57.92696755 707.79697373 57.9652917 700.39865176 58 693 C44.14 693 30.28 693 16 693 C16.10441406 699.91646484 16.10441406 699.91646484 16.2109375 706.97265625 C16.24161422 709.9030458 16.27049824 712.83323593 16.29296875 715.76367188 C16.32876498 720.40984478 16.37099692 725.05530472 16.45263672 729.70092773 C16.51808216 733.44870724 16.55375799 737.1957218 16.56926346 740.94402885 C16.58030526 742.37019321 16.6018684 743.79631814 16.63438034 745.22215462 C16.90941796 757.78998278 16.90941796 757.78998278 12.96337891 762.43139648 C11.98546387 763.27903564 11.00754883 764.1266748 10 765 C4.06 763.515 4.06 763.515 -2 762 C-2 739.23 -2 716.46 -2 693 C-7.61 693.33 -13.22 693.66 -19 694 C-23.75785268 694.13188078 -28.493075 694.22837761 -33.25 694.25 C-34.97476563 694.2809375 -34.97476563 694.2809375 -36.734375 694.3125 C-54.53640186 694.39268931 -71.15243749 688.68610302 -84 676 C-91.88731212 666.83749371 -98.14393718 655.00668481 -98.11352539 642.75073242 C-98.11340454 641.71589722 -98.11328369 640.68106201 -98.11315918 639.61486816 C-98.10804321 638.53926636 -98.10292725 637.46366455 -98.09765625 636.35546875 C-98.09664917 635.35793579 -98.09564209 634.36040283 -98.09460449 633.3326416 C-98.08938493 629.61758265 -98.07542367 625.90254013 -98.0625 622.1875 C-98.041875 613.875625 -98.02125 605.56375 -98 597 C-120.77 597 -143.54 597 -167 597 C-168.74921334 590.87775332 -169.39898131 587.98471966 -169 582 C-168.34 581.01 -167.68 580.02 -167 579 C-164.13998413 578.63923645 -164.13998413 578.63923645 -160.43896484 578.65942383 C-159.42903221 578.65876671 -159.42903221 578.65876671 -158.3986969 578.65809631 C-156.16915062 578.66018944 -153.94035269 578.6835438 -151.7109375 578.70703125 C-150.16680309 578.71262537 -148.62266336 578.71689634 -147.07852173 578.71989441 C-143.01116273 578.73135774 -138.94412429 578.76083738 -134.87689209 578.79400635 C-129.99860255 578.83006601 -125.12020592 578.84386133 -120.24182129 578.86136627 C-112.8276578 578.89047422 -105.4141979 578.94795025 -98 579 C-98 565.14 -98 551.28 -98 537 C-120.77 537 -143.54 537 -167 537 C-168.91507725 532.21230687 -169.49042339 529.01083671 -170 524 C-166.35618712 521.57079141 -164.66387555 521.75714435 -160.32543945 521.77294922 C-159.652005 521.77265717 -158.97857056 521.77236511 -158.284729 521.77206421 C-156.06078161 521.77345656 -153.83717005 521.78901297 -151.61328125 521.8046875 C-150.07057376 521.80841797 -148.5278639 521.81126478 -146.9851532 521.81326294 C-142.92611136 521.82089671 -138.8672128 521.84054294 -134.80822754 521.8626709 C-129.93738516 521.88673326 -125.06649486 521.89591154 -120.19561005 521.90757751 C-112.79697373 521.92696755 -105.39865176 521.9652917 -98 522 C-98 508.14 -98 494.28 -98 480 C-120.77 480 -143.54 480 -167 480 C-170 469 -170 469 -170 464 C-166.35618712 461.57079141 -164.66387555 461.75714435 -160.32543945 461.77294922 C-159.652005 461.77265717 -158.97857056 461.77236511 -158.284729 461.77206421 C-156.06078161 461.77345656 -153.83717005 461.78901297 -151.61328125 461.8046875 C-150.07057376 461.80841797 -148.5278639 461.81126478 -146.9851532 461.81326294 C-142.92611136 461.82089671 -138.8672128 461.84054294 -134.80822754 461.8626709 C-129.93738516 461.88673326 -125.06649486 461.89591154 -120.19561005 461.90757751 C-112.79697373 461.92696755 -105.39865176 461.9652917 -98 462 C-98 448.14 -98 434.28 -98 420 C-120.77 420 -143.54 420 -167 420 C-170 409 -170 409 -170 404 C-166.35618712 401.57079141 -164.66387555 401.75714435 -160.32543945 401.77294922 C-159.652005 401.77265717 -158.97857056 401.77236511 -158.284729 401.77206421 C-156.06078161 401.77345656 -153.83717005 401.78901297 -151.61328125 401.8046875 C-150.07057376 401.80841797 -148.5278639 401.81126478 -146.9851532 401.81326294 C-142.92611136 401.82089671 -138.8672128 401.84054294 -134.80822754 401.8626709 C-129.93738516 401.88673326 -125.06649486 401.89591154 -120.19561005 401.90757751 C-112.79697373 401.92696755 -105.39865176 401.9652917 -98 402 C-98 388.14 -98 374.28 -98 360 C-120.77 360 -143.54 360 -167 360 C-168.91507725 355.21230687 -169.49042339 352.01083671 -170 347 C-165.73841076 342.74641675 -162.20410849 340.59647307 -156.10546875 340.37890625 C-153.79885734 340.40851918 -151.49251497 340.47173028 -149.1875 340.5625 C-147.95169189 340.58699219 -146.71588379 340.61148437 -145.44262695 340.63671875 C-142.03632202 340.71096603 -138.63305418 340.81343297 -135.22802734 340.92852783 C-131.25676085 341.0559208 -127.28458736 341.14833912 -123.3125 341.24609375 C-114.87331984 341.45390318 -106.43790918 341.73106266 -98 342 C-98 329.13 -98 316.26 -98 303 C-120.77 303 -143.54 303 -167 303 C-170 292 -170 292 -170 287 C-166.35618712 284.57079141 -164.66387555 284.75714435 -160.32543945 284.77294922 C-159.652005 284.77265717 -158.97857056 284.77236511 -158.284729 284.77206421 C-156.06078161 284.77345656 -153.83717005 284.78901297 -151.61328125 284.8046875 C-150.07057376 284.80841797 -148.5278639 284.81126478 -146.9851532 284.81326294 C-142.92611136 284.82089671 -138.8672128 284.84054294 -134.80822754 284.8626709 C-129.93738516 284.88673326 -125.06649486 284.89591154 -120.19561005 284.90757751 C-112.79697373 284.92696755 -105.39865176 284.9652917 -98 285 C-98 271.14 -98 257.28 -98 243 C-101.7125 243.165 -105.425 243.33 -109.25 243.5 C-120.151172 243.92166081 -131.0527201 244.1631711 -141.96179199 244.23217773 C-143.56608731 244.24402594 -145.1703529 244.26108647 -146.77453613 244.28344727 C-149.0451919 244.31338791 -151.31510656 244.32335922 -153.5859375 244.328125 C-154.8961084 244.3374707 -156.2062793 244.34681641 -157.55615234 244.35644531 C-162.76970409 243.81683199 -165.96172909 241.14087737 -170 238 C-169.49042339 232.98916329 -168.91507725 229.78769313 -167 225 C-144.23 225 -121.46 225 -98 225 C-98 211.14 -98 197.28 -98 183 C-120.77 183 -143.54 183 -167 183 C-168.91507725 178.21230687 -169.49042339 175.01083671 -170 170 C-166.35618712 167.57079141 -164.66387555 167.75714435 -160.32543945 167.77294922 C-159.652005 167.77265717 -158.97857056 167.77236511 -158.284729 167.77206421 C-156.06078161 167.77345656 -153.83717005 167.78901297 -151.61328125 167.8046875 C-150.07057376 167.80841797 -148.5278639 167.81126478 -146.9851532 167.81326294 C-142.92611136 167.82089671 -138.8672128 167.84054294 -134.80822754 167.8626709 C-130.6657912 167.88313488 -126.5233317 167.89226584 -122.38085938 167.90234375 C-114.25384052 167.92378912 -106.12693809 167.95792192 -98 168 C-98.16134933 166.95434875 -98.32269867 165.90869751 -98.48893738 164.83135986 C-98.90242388 161.73151353 -99.14119825 158.8162232 -99.17700195 155.69824219 C-99.19625481 154.22070465 -99.19625481 154.22070465 -99.21589661 152.71331787 C-99.22328354 151.66839172 -99.23067047 150.62346558 -99.23828125 149.546875 C-99.246353 148.45086975 -99.25442474 147.3548645 -99.26274109 146.22564697 C-99.27652873 143.91265419 -99.2872745 141.59964151 -99.29516602 139.28662109 C-99.3066872 136.93597393 -99.327141 134.58535296 -99.35668945 132.23486328 C-99.39958779 128.81785512 -99.41556487 125.40161979 -99.42578125 121.984375 C-99.44328934 120.94754578 -99.46079742 119.91071655 -99.47883606 118.84246826 C-99.44238074 106.41101475 -94.58629972 94.59771445 -85.74609375 85.7421875 C-72.28439953 74.3764553 -57.51608132 70.44682088 -40.1875 70.75 C-38.48303711 70.75773437 -38.48303711 70.75773437 -36.74414062 70.765625 C-25.15337168 70.86690971 -13.57677052 71.45635751 -2 72 C-2.00444122 71.14222458 -2.00888245 70.28444916 -2.01345825 69.40068054 C-2.05350917 61.32246406 -2.08397126 53.24428086 -2.10362434 45.16598797 C-2.11406779 41.01271522 -2.12823719 36.85952441 -2.15087891 32.70629883 C-2.17258734 28.69925441 -2.1845644 24.69228888 -2.18975449 20.6851902 C-2.19345384 19.15535045 -2.20067765 17.62551508 -2.21146011 16.09570885 C-2.22594863 13.95523067 -2.22797908 11.81507975 -2.22705078 9.67456055 C-2.231492 8.45544479 -2.23593323 7.23632904 -2.24050903 5.98027039 C-2 3 -2 3 0 0 Z M-73.015625 99.0390625 C-79.5880578 106.85418217 -81.46299587 115.40844536 -81.38031673 125.45854759 C-81.38497665 126.35964056 -81.38963657 127.26073352 -81.3944377 128.18913233 C-81.40634403 131.19446613 -81.39700907 134.19934419 -81.38768005 137.2046814 C-81.39185487 139.38678182 -81.3973332 141.56888007 -81.40399987 143.7509743 C-81.41845369 149.73668933 -81.41420987 155.72226665 -81.40683305 161.70798922 C-81.40210357 168.16755752 -81.4146093 174.62709593 -81.42485046 181.08665466 C-81.44164679 193.00636553 -81.44348294 204.92603472 -81.43854547 216.84575464 C-81.43398578 227.85910596 -81.43459061 238.87244098 -81.44038582 249.88579178 C-81.44114269 251.36391958 -81.44189867 252.84204738 -81.44265376 254.32017518 C-81.44379898 256.54766635 -81.44494886 258.77515752 -81.44611301 261.00264869 C-81.45681581 281.70799149 -81.46154551 302.41332886 -81.45364285 323.11867332 C-81.45334567 323.89894362 -81.4530485 324.67921392 -81.45274232 325.48312877 C-81.45029346 331.81920235 -81.44768184 338.15527587 -81.44505819 344.49134939 C-81.4349563 369.20454519 -81.44331094 393.91767305 -81.46655273 418.63085938 C-81.49263294 446.40698503 -81.50547124 474.18306978 -81.49836498 501.95920813 C-81.49764894 504.92166431 -81.49697455 507.8841205 -81.49632454 510.84657669 C-81.49615473 511.57598922 -81.49598492 512.30540174 -81.49580997 513.05691767 C-81.49350837 524.06071021 -81.50147729 535.06446473 -81.51461601 546.06824875 C-81.52953416 558.58450984 -81.52998711 571.10067556 -81.5125451 583.616935 C-81.50402419 590.00219087 -81.50191247 596.3872768 -81.51719666 602.77252388 C-81.53102074 608.62020063 -81.52630947 614.46756147 -81.50695742 620.31521983 C-81.50319016 622.4281747 -81.5061402 624.54115474 -81.51656907 626.65408723 C-81.57700765 639.83904356 -81.49447267 652.04678401 -73.0625 663 C-72.41410156 663.86625 -71.76570313 664.7325 -71.09765625 665.625 C-65.63030056 671.81522768 -59.16133327 675.33592695 -50.85539153 676.23114748 C-44.47062331 676.61764517 -38.0753186 676.54189269 -31.68179321 676.5146637 C-29.49954045 676.51999235 -27.31729135 676.52705987 -25.13504922 676.53571075 C-19.15348835 676.55432256 -13.17217531 676.54803796 -7.19060421 676.53755772 C-0.7337523 676.53056163 5.7230489 676.54656681 12.17988586 676.55955505 C24.09301664 676.5807295 36.00607156 676.58201542 47.91921554 676.57433859 C58.92673022 676.56726022 69.93421567 676.56721379 80.9417305 676.57420158 C82.4194298 676.57511292 83.8971291 676.57602369 85.37482841 676.57693387 C87.6017095 676.57831703 89.82859059 676.57970813 92.05547167 676.58112001 C112.75331471 676.5940969 133.45114798 676.59921995 154.14899254 676.5875864 C154.9288716 676.58714843 155.70875066 676.58671046 156.51226242 676.58625922 C162.84504295 676.58265256 169.17782334 676.5788177 175.51060373 676.57496829 C200.21056067 676.56012202 224.91040702 676.56889958 249.61035156 676.59692383 C277.37551347 676.62836576 305.14060993 676.64331729 332.90578997 676.63312382 C335.86740596 676.63208707 338.82902196 676.63109984 341.79063797 676.6301403 C342.88443587 676.62976697 342.88443587 676.62976697 344.0003307 676.6293861 C354.99793843 676.62594902 365.99548828 676.6352408 376.99308395 676.65091133 C389.50309034 676.66869616 402.01294601 676.66831874 414.52294682 676.64555968 C420.9043155 676.63441654 427.28541941 676.63125716 433.66677666 676.64986038 C439.51206297 676.6666814 445.3568539 676.66029127 451.20210822 676.63564359 C453.31303093 676.63076533 455.42399371 676.63426215 457.53488283 676.64713103 C474.01675068 676.74033494 486.59442416 675.01211541 499 663 C508.88946489 652.94726564 506.30653253 635.97381958 506.31884766 622.984375 C506.32815769 620.72788583 506.3383155 618.47140003 506.34924603 616.21491814 C506.37664781 610.03271508 506.3917268 603.85053482 506.40465379 597.6682868 C506.41900989 591.68964501 506.4425121 585.71104074 506.46558318 579.73242776 C506.51800958 566.02393912 506.55670181 552.31543248 506.59067327 538.60688722 C506.61688367 528.03639802 506.64620813 517.46592187 506.67758179 506.89544678 C506.77748124 473.06075192 506.86112003 439.22604512 506.93163799 405.39127664 C506.96678834 388.55466076 507.00444942 371.71805912 507.05072021 354.88146973 C507.05287547 354.0968448 507.05503073 353.31221987 507.0572513 352.50381842 C507.06811689 348.55500156 507.07903872 344.60618485 507.08997774 340.65736818 C507.16991428 311.7759342 507.23436648 282.89452476 507.27321243 254.0130043 C507.27714395 251.11771897 507.28110991 248.22243369 507.28509521 245.32714844 C507.28606533 244.61461433 507.28703544 243.90208023 507.28803495 243.16795418 C507.30293041 232.41922961 507.32843847 221.67056421 507.35943604 210.921875 C507.3946044 198.71859221 507.41538594 186.51540682 507.41802746 174.31206691 C507.4197366 168.09699618 507.42785136 161.88211028 507.45331383 155.66708755 C507.47639694 149.98663367 507.48096076 144.30647863 507.47068477 138.62598991 C507.47021607 136.57192785 507.47652845 134.51785077 507.49029088 132.46383476 C507.50798354 129.67263664 507.50092416 126.88253797 507.48774719 124.09133911 C507.49871624 123.29469129 507.50968529 122.49804346 507.52098674 121.6772548 C507.41536816 112.40829965 503.02795872 104.82970692 497 98 C493.55115462 94.34809371 493.55115462 94.34809371 489 93 C488.67 92.01 488.34 91.02 488 90 C482.47322714 88.84336841 477.08883678 88.84733568 471.47065735 88.84178162 C470.40655435 88.83684293 469.34245135 88.83190425 468.24610281 88.8268159 C464.66708114 88.81142676 461.08807764 88.80306684 457.5090332 88.79467773 C454.92926475 88.78509603 452.34949782 88.77509664 449.76973248 88.76471329 C443.43145655 88.74002444 437.09317456 88.72065789 430.75487561 88.70298884 C423.21355488 88.68174909 415.67225611 88.65502752 408.13095327 88.62827805 C390.08142896 88.56458256 372.03187843 88.51132063 353.98231637 88.45964668 C345.49429183 88.43528809 337.00627121 88.40966922 328.51825047 88.38402365 C284.63773586 88.25164263 240.75718826 88.13738398 196.87659389 88.03502023 C186.38956977 88.01052968 175.90254842 87.98508763 165.41552828 87.95895294 C133.41883229 87.87936137 101.42216898 87.81041876 69.42538738 87.77699566 C66.83228746 87.7742794 64.23918755 87.77155733 61.64608765 87.76882935 C60.37463003 87.76750065 59.10317241 87.76617195 57.79318577 87.76480299 C48.86411001 87.75475589 39.93506849 87.73711284 31.00601196 87.71627808 C20.22088694 87.69125102 9.43581255 87.67664956 -1.3493427 87.67616135 C-6.78617589 87.6756779 -12.22289311 87.67056081 -17.65969849 87.65239906 C-22.59224749 87.63607576 -27.52459894 87.63363761 -32.45716536 87.64241898 C-34.2326937 87.64316318 -36.00823301 87.63884755 -37.78373373 87.62891567 C-51.45606961 87.5567265 -62.9050359 88.81090841 -73.015625 99.0390625 Z " fill="#EAEAEA" transform="translate(206,26)"/>
<path d="M0 0 C1.28220822 0.00027238 2.56441644 0.00054477 3.88547945 0.00082541 C4.60222426 -0.00584261 5.31896907 -0.01251062 6.05743343 -0.01938069 C8.47811941 -0.03572528 10.89721324 -0.01618314 13.31786013 0.00298452 C15.06310834 -0.0013411 16.80835228 -0.00785401 18.55358505 -0.01637554 C23.36406222 -0.03343797 28.17402228 -0.01913671 32.98447251 0.00013924 C38.16655067 0.01551502 43.34856333 0.00217766 48.53064394 -0.00760508 C58.68810093 -0.02216062 68.84535863 -0.00986846 79.00279677 0.01150817 C90.82157786 0.03547184 102.64031283 0.03380666 114.45911282 0.03120226 C135.5411798 0.02750877 156.62315262 0.04836625 177.70518923 0.0824523 C198.18079938 0.11554576 218.65631069 0.12971098 239.13194704 0.12346792 C261.4071051 0.11670964 283.68222169 0.11914816 305.95737362 0.13882732 C307.72290865 0.14038655 307.72290865 0.14038655 309.52411106 0.14197728 C311.88837038 0.14406824 314.25262969 0.14617922 316.61688897 0.14831045 C324.86299559 0.155217 333.10908947 0.15587355 341.35519838 0.15442801 C351.39897656 0.15299088 361.44267394 0.16263195 371.48642528 0.18637437 C376.61482581 0.19826511 381.7431135 0.20533916 386.87152719 0.1995368 C391.56062942 0.1943881 396.24949264 0.2029708 400.93855387 0.2228114 C402.64038397 0.22757513 404.34223717 0.22722094 406.04406399 0.22140104 C408.34688408 0.21428324 410.64889822 0.2254005 412.95165682 0.24133444 C414.87496915 0.24369124 414.87496915 0.24369124 416.83713627 0.24609566 C419.91856813 0.62444448 419.91856813 0.62444448 421.83040488 1.71295691 C423.51111521 4.66532358 423.2948079 7.21204239 423.29609156 10.5913558 C423.30045188 11.30810061 423.3048122 12.02484542 423.30930465 12.76330978 C423.32032044 15.18364069 423.30980988 17.60340899 423.29951906 20.02373648 C423.30297314 21.7689811 423.30773601 23.51422355 423.3137008 25.2594614 C423.32627489 30.06981614 423.32001142 34.87999332 423.31074214 39.69034886 C423.30397811 44.87241852 423.31441969 50.05445679 423.3226819 55.23652029 C423.33604981 65.3939258 423.33312792 75.55126496 423.32444398 85.70867312 C423.31767984 93.96087082 423.3167452 102.21304987 423.32001543 110.46524954 C423.32047513 111.6379547 423.32093483 112.81065987 423.32140846 114.01890156 C423.3223676 116.40093077 423.32334023 118.78295997 423.32432623 121.16498917 C423.33288908 143.52232855 423.32303197 165.87963107 423.30692513 188.2369644 C423.29352115 207.4372692 423.29584899 226.63751958 423.30968142 245.83782339 C423.32572144 268.1129747 423.33206502 290.38809369 423.32284462 312.66324997 C423.32188894 315.03671312 423.32094583 317.41017627 423.32001543 319.78363943 C423.3195526 320.95155097 423.31908978 322.11946252 423.31861293 323.32276532 C423.3160183 331.56887633 423.3204042 339.81496689 423.32745409 348.06107473 C423.33585179 358.10484319 423.3336255 368.14854128 423.31761186 378.19230163 C423.30970577 383.32070836 423.30667717 388.44899758 423.31655931 393.57740355 C423.32545853 398.26649506 423.32065273 402.95535949 423.30462666 407.64443022 C423.3012585 409.34626463 423.30301817 411.04811798 423.31025402 412.74994034 C423.31929871 415.05274901 423.31010045 417.35476672 423.29609156 419.65753317 C423.29536097 421.5808455 423.29536097 421.5808455 423.29461563 423.54301262 C422.91856813 426.62444448 422.91856813 426.62444448 421.83040488 428.53628123 C418.87778578 430.21682829 416.33114028 430.00068418 412.95165682 430.00196791 C412.23491201 430.00632823 411.51816719 430.01068855 410.77970284 430.01518101 C408.35937193 430.02619679 405.93960363 430.01568623 403.51927614 430.00539541 C401.77403152 430.00884949 400.02878907 430.01361236 398.28355122 430.01957715 C393.47319648 430.03215124 388.6630193 430.02588777 383.85266376 430.01661849 C378.6705941 430.00985446 373.48855583 430.02029604 368.30649233 430.02855825 C358.14908682 430.04192616 347.99174766 430.03900427 337.8343395 430.03032033 C329.5821418 430.02355619 321.32996275 430.02262155 313.07776308 430.02589178 C311.31870533 430.02658133 311.31870533 430.02658133 309.52411106 430.02728481 C307.14208185 430.02824395 304.76005265 430.02921658 302.37802345 430.03020258 C280.02068407 430.03876543 257.66338155 430.02890832 235.30604821 430.01280148 C216.10574342 429.9993975 196.90549304 430.00172534 177.70518923 430.01555777 C155.43003791 430.03159779 133.15491893 430.03794137 110.87976265 430.02872097 C108.5062995 430.02776529 106.13283635 430.02682218 103.75937319 430.02589178 C102.00750587 430.02519754 102.00750587 430.02519754 100.2202473 430.02448928 C91.97413629 430.02189465 83.72804573 430.02628055 75.48193789 430.03333044 C65.43816943 430.04172814 55.39447134 430.03950186 45.35071099 430.02348821 C40.22230426 430.01558212 35.09401504 430.01255352 29.96560907 430.02243567 C25.27651756 430.03133488 20.58765313 430.02652908 15.8985824 430.01050301 C14.19674799 430.00713485 12.49489464 430.00889452 10.79307228 430.01613037 C8.49026361 430.02517506 6.1882459 430.0159768 3.88547945 430.00196791 C2.60327123 430.00148085 1.32106301 430.00099379 0 430.00049198 C-3.08143187 429.62444448 -3.08143187 429.62444448 -4.99326861 428.53397989 C-6.6698144 425.59193647 -6.45766844 423.06315252 -6.45895529 419.69435453 C-6.46331561 418.98158566 -6.46767593 418.26881679 -6.47216839 417.53444886 C-6.48318387 415.12762231 -6.47267374 412.72136158 -6.46238279 410.31453848 C-6.46583689 408.57896882 -6.47059978 406.84340136 -6.47656453 405.10783851 C-6.48913854 400.32414783 -6.48287516 395.54063568 -6.47360587 390.75694418 C-6.46684171 385.60346633 -6.47728355 380.45002003 -6.48554564 375.29654837 C-6.49891396 365.19461969 -6.49599129 355.09275772 -6.48730771 344.99082638 C-6.48054299 336.7825055 -6.47960919 328.57420336 -6.48287916 320.36588049 C-6.48333886 319.19930349 -6.48379856 318.03272649 -6.48427219 316.83079868 C-6.48523133 314.46117493 -6.48620397 312.09155119 -6.48718996 309.72192745 C-6.49575313 287.47993551 -6.4858956 265.2379806 -6.46978886 242.99599473 C-6.45638837 223.89979535 -6.45870978 204.80365069 -6.47254515 185.7074523 C-6.48859067 163.55020905 -6.49492536 141.39299832 -6.48570836 119.23575008 C-6.48475268 116.87404673 -6.48380957 114.51234337 -6.48287916 112.15064001 C-6.48241634 110.98853811 -6.48195351 109.82643621 -6.48147666 108.62911911 C-6.47888342 100.42903232 -6.48326502 92.2289661 -6.49031782 84.0288825 C-6.49872177 74.03787194 -6.49647613 64.04693211 -6.48047559 54.05592968 C-6.47257744 48.95562869 -6.46952749 43.85544573 -6.47942305 38.75514555 C-6.48833873 34.08938781 -6.48348885 29.42385791 -6.46749039 24.75812094 C-6.46412925 23.06701804 -6.46586643 21.37589604 -6.47311775 19.68480535 C-6.48219905 17.39166618 -6.4729262 15.09931433 -6.45895529 12.80621672 C-6.45846823 11.53084346 -6.45798117 10.25547021 -6.45747936 8.94144928 C-5.89374914 3.96895011 -5.20705346 1.0551964 0 0 Z M11.91856813 15.62444448 C11.91856813 146.30444448 11.91856813 276.98444448 11.91856813 411.62444448 C141.60856813 411.62444448 271.29856813 411.62444448 404.91856813 411.62444448 C404.91856813 280.94444448 404.91856813 150.26444448 404.91856813 15.62444448 C275.22856813 15.62444448 145.53856813 15.62444448 11.91856813 15.62444448 Z " fill="#EDEDED" transform="translate(210.08143186569214,193.3755555152893)"/>
<path d="M0 0 C22 0 22 0 30 3 C38.42755892 13.55342964 39.77996223 32.45574572 41.94998169 45.51196289 C42.68430148 49.91861983 43.44618732 54.32051405 44.20703125 58.72265625 C44.3585112 59.60079987 44.50999115 60.47894348 44.6660614 61.38369751 C47.75996961 79.23354423 51.35766926 96.93797378 55.87768555 114.484375 C57.57388945 121.12203911 59.06883679 127.77450967 60.375 134.5 C60.54273926 135.34248291 60.71047852 136.18496582 60.88330078 137.05297852 C61.83289446 142.12106343 62.15372948 146.8441496 62 152 C62.66 152 63.32 152 64 152 C64.11730469 151.00097656 64.23460937 150.00195312 64.35546875 148.97265625 C64.9259773 144.99308438 66.05286994 141.24701949 67.3125 137.4375 C71.32946892 125.12826727 74.6709475 112.75396296 77.25 100.0625 C77.39451599 99.36022278 77.53903198 98.65794556 77.68792725 97.93438721 C80.48327803 84.30172288 82.82641673 70.59878226 85.125 56.875 C89.64062895 29.95733366 89.64062895 29.95733366 91.75 19.4375 C91.92418457 18.52403809 92.09836914 17.61057617 92.27783203 16.66943359 C93.40925282 11.25074758 94.99355966 7.00644034 99 3 C107.91 3 116.82 3 126 3 C126 94.08 126 185.16 126 279 C117.09 279 108.18 279 99 279 C98.28845372 262.6462946 97.80127686 246.31379696 97.55444336 229.94714355 C97.299391 213.21262071 97.0324658 196.4783005 96.5 179.75 C96.44682617 178.00855713 96.44682617 178.00855713 96.39257812 176.23193359 C96.21374524 171.01519004 95.92841576 165.82713195 95.48242188 160.62597656 C95.34700989 159.03635101 95.34700989 159.03635101 95.2088623 157.41461182 C95.13993774 156.61778992 95.07101318 155.82096802 95 155 C94.86076614 155.6504982 94.72153229 156.3009964 94.57807922 156.97120667 C93.10172569 163.86834941 91.62485268 170.76538079 90.14770508 177.66235352 C89.59972578 180.22124544 89.05187004 182.78016382 88.50415039 185.33911133 C85.03091455 201.56558529 81.53805731 217.78752757 78 234 C75.99021601 233.7990216 73.98044436 233.59791816 71.97076416 233.39590454 C70.43142597 233.24283146 68.8914187 233.0964488 67.35107422 232.95385742 C62.65606056 232.44133804 59.1199063 231.4659729 55 229 C54.35474365 228.63205322 53.7094873 228.26410645 53.04467773 227.88500977 C50.09912186 225.16947103 48.96394525 221.89937693 47.58984375 218.2265625 C47.28980942 217.43819 46.98977509 216.6498175 46.6806488 215.83755493 C43.05114154 205.91973283 40.8274405 195.67097328 38.5625 185.375 C38.11390239 183.38512944 37.66403872 181.39554386 37.21289062 179.40625 C36.12737202 174.60731119 35.0588201 169.80489679 34 165 C33.96463638 166.15606247 33.92927277 167.31212494 33.89283752 168.5032196 C33.55653056 179.48969771 33.21833067 190.4761162 32.87835789 201.4624815 C32.7037056 207.10834187 32.52968099 212.75422001 32.35717773 218.40014648 C32.19014624 223.86618146 32.02135258 229.33215962 31.85142326 234.79810524 C31.78743862 236.86567126 31.72405004 238.93325582 31.66131783 241.00086021 C31.24588804 254.67615319 30.68310909 268.33524041 30 282 C20.1 282 10.2 282 0 282 C0 188.94 0 95.88 0 0 Z " fill="#EFEFEF" transform="translate(351,257)"/>
</svg>
