<?xml version="1.0" encoding="UTF-8"?>
<svg version="1.1" xmlns="http://www.w3.org/2000/svg" width="1128" height="378">
<path d="M0 0 C372.24 0 744.48 0 1128 0 C1128 124.74 1128 249.48 1128 378 C755.76 378 383.52 378 0 378 C0 253.26 0 128.52 0 0 Z " fill="#FFFFFF" transform="translate(0,0)"/>
<path d="M0 0 C372.24 0 744.48 0 1128 0 C1128 124.74 1128 249.48 1128 378 C755.76 378 383.52 378 0 378 C0 253.26 0 128.52 0 0 Z M29 17 C29 126.89 29 236.78 29 350 C384.74 350 740.48 350 1107 350 C1107 240.11 1107 130.22 1107 17 C751.26 17 395.52 17 29 17 Z " fill="#FFFFFF" transform="translate(0,0)"/>
<path d="M0 0 C1.18632523 -0.00281982 2.37265045 -0.00563965 3.59492493 -0.00854492 C4.90821274 -0.00652069 6.22150055 -0.00449646 7.57458496 -0.00241089 C8.96225531 -0.00376491 10.3499253 -0.00554484 11.7375946 -0.00772095 C15.51641654 -0.01229524 19.2952113 -0.01050574 23.07403374 -0.00734186 C27.02005972 -0.00481824 30.9660833 -0.0071558 34.91210938 -0.00872803 C41.54000264 -0.01054972 48.16788479 -0.00814343 54.79577637 -0.00338745 C62.46940137 0.00205517 70.14299981 0.00029251 77.81662416 -0.00521386 C84.39325326 -0.00974501 90.96987434 -0.01039553 97.5465045 -0.00777519 C101.47960057 -0.00621242 105.41268414 -0.00601863 109.34577942 -0.00931168 C113.04258283 -0.01219042 116.73935183 -0.01021465 120.4361515 -0.00441742 C122.44817176 -0.00245419 124.46019492 -0.0054437 126.47221375 -0.00854492 C127.65853897 -0.0057251 128.8448642 -0.00290527 130.06713867 0 C131.10470055 0.00037703 132.14226242 0.00075405 133.21126556 0.0011425 C135.53356934 0.12698364 135.53356934 0.12698364 136.53356934 1.12698364 C136.63218972 2.9469487 136.65989068 4.77077931 136.66055298 6.59341431 C136.6633728 7.77973953 136.66619263 8.96606476 136.6690979 10.18833923 C136.66606155 12.15827095 136.66606155 12.15827095 136.66296387 14.16799927 C136.66431788 15.55566962 136.66609782 16.94333961 136.66827393 18.33100891 C136.67284822 22.10983085 136.67105872 25.88862561 136.66789484 29.66744804 C136.66537122 33.61347403 136.66770878 37.55949761 136.66928101 41.50552368 C136.6711027 48.13341695 136.66869641 54.76129909 136.66394043 61.38919067 C136.65849781 69.06281568 136.66026047 76.73641411 136.66576684 84.41003847 C136.67029799 90.98666757 136.6709485 97.56328865 136.66832817 104.1399188 C136.6667654 108.07301488 136.66657161 112.00609845 136.66986465 115.93919373 C136.6727434 119.63599713 136.67076762 123.33276614 136.6649704 127.02956581 C136.66300717 129.04158607 136.66599668 131.05360922 136.6690979 133.06562805 C136.66627808 134.25195328 136.66345825 135.4382785 136.66055298 136.66055298 C136.65998744 138.21689579 136.65998744 138.21689579 136.65941048 139.80467987 C136.53356934 142.12698364 136.53356934 142.12698364 135.53356934 143.12698364 C133.71360428 143.22560402 131.88977367 143.25330498 130.06713867 143.25396729 C128.88081345 143.25678711 127.69448822 143.25960693 126.47221375 143.26251221 C125.15892593 143.26048798 123.84563812 143.25846375 122.49255371 143.25637817 C121.10488336 143.25773219 119.71721337 143.25951212 118.32954407 143.26168823 C114.55072213 143.26626252 110.77192737 143.26447303 106.99310493 143.26130915 C103.04707895 143.25878552 99.10105537 143.26112309 95.1550293 143.26269531 C88.52713603 143.264517 81.89925389 143.26211072 75.2713623 143.25735474 C67.5977373 143.25191212 59.92413887 143.25367477 52.25051451 143.25918114 C45.67388541 143.26371229 39.09726433 143.26436281 32.52063417 143.26174247 C28.5875381 143.26017971 24.65445453 143.25998591 20.72135925 143.26327896 C17.02455584 143.2661577 13.32778684 143.26418193 9.63098717 143.2583847 C7.61896691 143.25642148 5.60694375 143.25941099 3.59492493 143.26251221 C2.4085997 143.25969238 1.22227448 143.25687256 0 143.25396729 C-1.03756187 143.25359026 -2.07512375 143.25321323 -3.14412689 143.25282478 C-5.46643066 143.12698364 -5.46643066 143.12698364 -6.46643066 142.12698364 C-6.56505104 140.30701859 -6.592752 138.48318798 -6.59341431 136.66055298 C-6.59623413 135.47422775 -6.59905396 134.28790253 -6.60195923 133.06562805 C-6.599935 131.75234024 -6.59791077 130.43905243 -6.5958252 129.08596802 C-6.59717921 127.69829767 -6.59895915 126.31062768 -6.60113525 124.92295837 C-6.60570955 121.14413644 -6.60392005 117.36534168 -6.60075617 113.58651924 C-6.59823254 109.64049326 -6.60057011 105.69446967 -6.60214233 101.7484436 C-6.60396402 95.12055034 -6.60155774 88.49266819 -6.59680176 81.86477661 C-6.59135914 74.19115161 -6.59312179 66.51755317 -6.59862816 58.84392881 C-6.60315931 52.26729972 -6.60380983 45.69067864 -6.60118949 39.11404848 C-6.59962673 35.18095241 -6.59943294 31.24786884 -6.60272598 27.31477356 C-6.60560473 23.61797015 -6.60362895 19.92120115 -6.59783173 16.22440147 C-6.5958685 14.21238121 -6.59885801 12.20035806 -6.60195923 10.18833923 C-6.5991394 9.00201401 -6.59631958 7.81568878 -6.59341431 6.59341431 C-6.59284877 5.0370715 -6.59284877 5.0370715 -6.5922718 3.44928741 C-6.35230193 -0.97917654 -3.86417044 0.00140415 0 0 Z " fill="#FFFFFF" transform="translate(144.4664306640625,112.87301635742188)"/>
<path d="M0 0 C0.74632553 -0.00523668 1.49265105 -0.01047336 2.26159251 -0.01586872 C4.76963311 -0.03090514 7.27747035 -0.03157467 9.78555298 -0.03224182 C11.58081915 -0.03986085 13.37608205 -0.0482879 15.17134094 -0.0574646 C20.05358097 -0.0794414 24.93575837 -0.08821273 29.81804228 -0.09329104 C32.86694936 -0.09693075 35.91583995 -0.10316878 38.96474075 -0.11029243 C49.59756443 -0.13479763 60.23033923 -0.14784122 70.8631897 -0.15138245 C80.78064944 -0.15501893 90.69779993 -0.18491967 100.61516511 -0.22678703 C109.12479828 -0.26145445 117.63432879 -0.27693027 126.14403212 -0.27762848 C131.22871266 -0.27842249 136.31307831 -0.28721772 141.397686 -0.31562614 C146.1797609 -0.34174615 150.96125848 -0.34404605 155.74337196 -0.3279705 C157.49897454 -0.32615119 159.25460985 -0.33289018 161.01014137 -0.34878922 C163.40645551 -0.36916923 165.80073434 -0.35874789 168.19702148 -0.34057617 C168.89245446 -0.35377614 169.58788743 -0.36697611 170.30439413 -0.38057607 C174.18790421 -0.313269 175.62877633 0.1918081 178.63352394 2.75007534 C179.32387419 3.58302152 180.01422443 4.41596769 180.72549438 5.27415466 C181.05549438 5.60415466 181.38549438 5.93415466 181.72549438 6.27415466 C181.82975198 8.60305446 181.86882854 10.90255134 181.86593628 13.23222351 C181.8689074 13.96867308 181.87187852 14.70512266 181.87493968 15.46388888 C181.88366404 17.9504601 181.88513807 20.43698338 181.8866272 22.92356873 C181.89125281 24.69883325 181.89627711 26.47409678 181.90167236 28.24935913 C181.91482489 33.08625785 181.92124709 37.92314268 181.92568302 42.7600565 C181.92860971 45.77980043 181.93271378 48.79954052 181.93718719 51.81928253 C181.95087086 61.26087911 181.96053274 70.70246696 181.96438909 80.14407277 C181.96886938 91.05458517 181.9864123 101.96497227 182.01538968 112.87544656 C182.03699036 121.30010621 182.04709254 129.72473058 182.0484302 138.14941764 C182.04947957 143.1848632 182.05541511 148.22019112 182.07324982 153.2556076 C182.08970218 157.99321722 182.09189981 162.73062041 182.08311081 167.46824837 C182.08233886 169.20771652 182.08670391 170.94719563 182.09656906 172.68663597 C182.10924425 175.06072152 182.10343623 177.43407112 182.09298706 179.80815125 C182.10507167 180.84167422 182.10507167 180.84167422 182.11740041 181.89607644 C182.07309732 186.19763242 181.43750098 188.90845456 178.72549438 192.27415466 C174.69439218 195.51412165 171.40832279 195.65244957 166.32437134 195.66183472 C165.58858762 195.66722025 164.8528039 195.67260579 164.0947237 195.67815453 C161.63423654 195.69243897 159.17428701 195.68532941 156.71377563 195.6782074 C154.94776985 195.68391067 153.18176776 195.69087477 151.41577148 195.69900513 C146.62244317 195.71695508 141.82929773 195.71576486 137.03594589 195.71006274 C133.03477438 195.70697396 129.03363815 195.71305979 125.03247166 195.71910149 C115.5945041 195.73315075 106.15662706 195.7315817 96.71865845 195.72019958 C86.97955143 195.70871391 77.24071965 195.72280069 67.5016489 195.74959606 C59.14058523 195.7717394 50.77960803 195.77839364 42.41851711 195.77251965 C37.42447252 195.76914608 32.43060443 195.77159181 27.43658447 195.78877068 C22.7415233 195.80421629 18.04687061 195.80031085 13.35182571 195.78146553 C11.62848617 195.77777323 9.90511651 195.78090677 8.18180466 195.79135132 C5.82960241 195.80451945 3.47876087 195.79305239 1.12661743 195.77536011 C-0.84780083 195.77504618 -0.84780083 195.77504618 -2.86210632 195.77472591 C-6.87192962 195.18651742 -8.4684814 194.15316363 -11.27450562 191.27415466 C-13.82078299 187.74815031 -13.52857716 184.24405423 -13.53520203 179.99328613 C-13.53902757 179.25835684 -13.54285312 178.52342754 -13.54679459 177.76622766 C-13.55711631 175.30273286 -13.55313406 172.83947149 -13.54916382 170.3759613 C-13.55351075 168.61010523 -13.55869383 166.84425104 -13.56465149 165.07839966 C-13.57805461 160.28091193 -13.57861871 155.48350292 -13.57608819 150.68600011 C-13.5750194 146.68240041 -13.57989948 142.67881671 -13.58469361 138.67522043 C-13.59579328 129.23105421 -13.59622358 119.78692777 -13.59017944 110.34275818 C-13.58413784 100.59633507 -13.59645436 90.85005627 -13.61774951 81.10365778 C-13.6353557 72.73837839 -13.64136844 64.37314497 -13.63811177 56.00784773 C-13.63629725 51.01046193 -13.63895197 46.01317906 -13.65282631 41.01581001 C-13.66538409 36.31672354 -13.66348001 31.61786231 -13.65041542 26.91877937 C-13.64804564 25.19382654 -13.65079868 23.46885796 -13.65903854 21.74392319 C-13.66947391 19.38968848 -13.66143171 17.03621402 -13.64872742 14.68200684 C-13.64889516 13.36442918 -13.6490629 12.04685152 -13.64923573 10.68934727 C-13.24717978 7.02511409 -12.50684393 5.1744033 -10.27450562 2.27415466 C-6.69140121 -0.11458161 -4.13670103 -0.01427427 0 0 Z M12.72549438 27.27415466 C12.62687401 29.09411972 12.59917304 30.91795033 12.59851074 32.74058533 C12.59569092 33.92691055 12.59287109 35.11323578 12.58996582 36.33551025 C12.59199005 37.64879807 12.59401428 38.96208588 12.59609985 40.31517029 C12.59474584 41.70284064 12.5929659 43.09051063 12.59078979 44.47817993 C12.5862155 48.25700187 12.588005 52.03579663 12.59116888 55.81461906 C12.5936925 59.76064505 12.59135494 63.70666863 12.58978271 67.6526947 C12.58796103 74.28058797 12.59036731 80.90847011 12.59512329 87.53636169 C12.60056591 95.2099867 12.59880325 102.88358513 12.59329689 110.55720949 C12.58876574 117.13383859 12.58811522 123.71045967 12.59073555 130.28708982 C12.59229832 134.2201859 12.59249211 138.15326947 12.58919907 142.08636475 C12.58632032 145.78316815 12.5882961 149.47993716 12.59409332 153.17673683 C12.59605655 155.18875709 12.59306704 157.20078025 12.58996582 159.21279907 C12.59278564 160.3991243 12.59560547 161.58544952 12.59851074 162.807724 C12.59888777 163.84528587 12.59926479 164.88284775 12.59965324 165.95185089 C12.46416027 168.23542398 12.46416027 168.23542398 13.72549438 169.27415466 C15.54545944 169.37277504 17.36929005 169.400476 19.19192505 169.40113831 C20.37825027 169.40395813 21.5645755 169.40677795 22.78684998 169.40968323 C24.10013779 169.407659 25.4134256 169.40563477 26.76651001 169.40354919 C28.15418036 169.40490321 29.54185035 169.40668315 30.92951965 169.40885925 C34.70834159 169.41343354 38.48713635 169.41164405 42.26595879 169.40848017 C46.21198477 169.40595654 50.15800835 169.40829411 54.10403442 169.40986633 C60.73192769 169.41168802 67.35980983 169.40928174 73.98770142 169.40452576 C81.66132642 169.39908314 89.33492486 169.40084579 97.00854921 169.40635216 C103.58517831 169.41088331 110.16179939 169.41153383 116.73842955 169.40891349 C120.67152562 169.40735073 124.60460919 169.40715693 128.53770447 169.41044998 C132.23450788 169.41332873 135.93127688 169.41135295 139.62807655 169.40555573 C141.64009681 169.4035925 143.65211997 169.40658201 145.66413879 169.40968323 C146.85046402 169.4068634 148.03678925 169.40404358 149.25906372 169.40113831 C150.2966256 169.40076128 151.33418747 169.40038425 152.40319061 169.3999958 C154.68676371 169.53548877 154.68676371 169.53548877 155.72549438 168.27415466 C155.82411476 166.45418961 155.85181572 164.630359 155.85247803 162.807724 C155.85529785 161.62139877 155.85811768 160.43507355 155.86102295 159.21279907 C155.85899872 157.89951126 155.85697449 156.58622345 155.85488892 155.23313904 C155.85624293 153.84546869 155.85802287 152.4577987 155.86019897 151.07012939 C155.86477327 147.29130746 155.86298377 143.5125127 155.85981989 139.73369026 C155.85729626 135.78766428 155.85963383 131.84164069 155.86120605 127.89561462 C155.86302774 121.26772136 155.86062146 114.63983921 155.85586548 108.01194763 C155.85042286 100.33832263 155.85218552 92.66472419 155.85769188 84.99109983 C155.86222303 78.41447074 155.86287355 71.83784966 155.86025321 65.2612195 C155.85869045 61.32812343 155.85849666 57.39503986 155.8617897 53.46194458 C155.86466845 49.76514117 155.86269267 46.06837217 155.85689545 42.37157249 C155.85493222 40.35955224 155.85792173 38.34752908 155.86102295 36.33551025 C155.85820312 35.14918503 155.8553833 33.9628598 155.85247803 32.74058533 C155.852101 31.70302345 155.85172398 30.66546158 155.85133553 29.59645844 C155.98682849 27.31288534 155.98682849 27.31288534 154.72549438 26.27415466 C152.90552933 26.17553428 151.08169872 26.14783332 149.25906372 26.14717102 C148.07273849 26.1443512 146.88641327 26.14153137 145.66413879 26.1386261 C144.35085098 26.14065033 143.03756317 26.14267456 141.68447876 26.14476013 C140.29680841 26.14340611 138.90913842 26.14162618 137.52146912 26.13945007 C133.74264718 26.13487578 129.96385242 26.13666528 126.18502998 26.13982916 C122.239004 26.14235278 118.29298042 26.14001522 114.34695435 26.13844299 C107.71906108 26.1366213 101.09117893 26.13902759 94.46328735 26.14378357 C86.78966235 26.14922619 79.11606391 26.14746353 71.44243956 26.14195716 C64.86581046 26.13742601 58.28918938 26.13677549 51.71255922 26.13939583 C47.77946315 26.1409586 43.84637958 26.14115239 39.9132843 26.13785934 C36.21648089 26.1349806 32.51971189 26.13695637 28.82291222 26.1427536 C26.81089196 26.14471683 24.7988688 26.14172732 22.78684998 26.1386261 C21.60052475 26.14144592 20.41419952 26.14426575 19.19192505 26.14717102 C18.15436317 26.14754805 17.1168013 26.14792507 16.04779816 26.14831352 C13.76422506 26.01282055 13.76422506 26.01282055 12.72549438 27.27415466 Z " fill="#FFFFFF" transform="translate(125.27450561523438,86.72584533691406)"/>
<path d="M0 0 C2.475 0.495 2.475 0.495 5 1 C5 8.59 5 16.18 5 24 C9.29 23.67 13.58 23.34 18 23 C18.33 15.41 18.66 7.82 19 0 C20.65 0.33 22.3 0.66 24 1 C24 8.59 24 16.18 24 24 C28.62 24 33.24 24 38 24 C38 16.41 38 8.82 38 1 C40.475 0.505 40.475 0.505 43 0 C44 1 44 1 44.11352539 3.22485352 C44.10567017 4.66235962 44.10567017 4.66235962 44.09765625 6.12890625 C44.09282227 7.68061523 44.09282227 7.68061523 44.08789062 9.26367188 C44.07532227 10.8965918 44.07532227 10.8965918 44.0625 12.5625 C44.05798828 13.65498047 44.05347656 14.74746094 44.04882812 15.87304688 C44.0369984 18.58205432 44.01906231 21.2910338 44 24 C48.62 24 53.24 24 58 24 C58 16.41 58 8.82 58 1 C60.475 0.505 60.475 0.505 63 0 C64.25248502 2.50497004 64.11374406 4.20853274 64.09765625 7.0078125 C64.09282227 8.48701172 64.09282227 8.48701172 64.08789062 9.99609375 C64.07532227 11.54490234 64.07532227 11.54490234 64.0625 13.125 C64.05798828 14.16527344 64.05347656 15.20554687 64.04882812 16.27734375 C64.03701967 18.85158687 64.01908385 21.42580053 64 24 C70.435 23.505 70.435 23.505 77 23 C77.33 15.41 77.66 7.82 78 0 C79.65 0.33 81.3 0.66 83 1 C83 8.59 83 16.18 83 24 C87.62 24 92.24 24 97 24 C97 16.41 97 8.82 97 1 C98.65 0.67 100.3 0.34 102 0 C103 1 103 1 103.11352539 3.22485352 C103.10828857 4.18319092 103.10305176 5.14152832 103.09765625 6.12890625 C103.09443359 7.16337891 103.09121094 8.19785156 103.08789062 9.26367188 C103.07951172 10.35228516 103.07113281 11.44089844 103.0625 12.5625 C103.05798828 13.65498047 103.05347656 14.74746094 103.04882812 15.87304688 C103.0369984 18.58205432 103.01906231 21.2910338 103 24 C107.62 24 112.24 24 117 24 C117 16.41 117 8.82 117 1 C118.65 0.67 120.3 0.34 122 0 C122.33 7.59 122.66 15.18 123 23 C127.29 23.33 131.58 23.66 136 24 C136 16.41 136 8.82 136 1 C137.65 0.67 139.3 0.34 141 0 C142 1 142 1 142.11352539 3.22485352 C142.10828857 4.18319092 142.10305176 5.14152832 142.09765625 6.12890625 C142.09443359 7.16337891 142.09121094 8.19785156 142.08789062 9.26367188 C142.07951172 10.35228516 142.07113281 11.44089844 142.0625 12.5625 C142.05798828 13.65498047 142.05347656 14.74746094 142.04882812 15.87304688 C142.03699826 18.58208495 142.02051543 21.29101599 142 24 C143.95292969 23.94779297 143.95292969 23.94779297 145.9453125 23.89453125 C147.67186204 23.86638099 149.39842561 23.83908216 151.125 23.8125 C151.9809375 23.78736328 152.836875 23.76222656 153.71875 23.73632812 C159.65936367 23.66778258 164.02915373 24.29595303 168.609375 28.46484375 C172.01001515 32.85539627 174.27135602 35.91965431 174.1953125 41.546875 C174.19031738 42.30838867 174.18532227 43.06990234 174.18017578 43.85449219 C174.16196777 44.81000977 174.14375977 45.76552734 174.125 46.75 C174.08375 49.8025 174.0425 52.855 174 56 C181.59 56 189.18 56 197 56 C197.33 57.32 197.66 58.64 198 60 C197 61 197 61 194.77514648 61.11352539 C193.81680908 61.10828857 192.85847168 61.10305176 191.87109375 61.09765625 C190.31938477 61.09282227 190.31938477 61.09282227 188.73632812 61.08789062 C187.64771484 61.07951172 186.55910156 61.07113281 185.4375 61.0625 C183.7987793 61.05573242 183.7987793 61.05573242 182.12695312 61.04882812 C179.41794568 61.0369984 176.7089662 61.01906231 174 61 C174 65.62 174 70.24 174 75 C175.56492187 74.98839844 177.12984375 74.97679687 178.7421875 74.96484375 C180.78645714 74.95546637 182.83072807 74.94636611 184.875 74.9375 C186.42380859 74.92493164 186.42380859 74.92493164 188.00390625 74.91210938 C188.99003906 74.90888672 189.97617187 74.90566406 190.9921875 74.90234375 C191.90339355 74.89710693 192.81459961 74.89187012 193.75341797 74.88647461 C196 75 196 75 198 76 C197.67 77.65 197.34 79.3 197 81 C189.41 81 181.82 81 174 81 C174 85.62 174 90.24 174 95 C181.59 95 189.18 95 197 95 C197.33 96.65 197.66 98.3 198 100 C195.49502996 101.25248502 193.79146726 101.11374406 190.9921875 101.09765625 C190.00605469 101.09443359 189.01992188 101.09121094 188.00390625 101.08789062 C186.97136719 101.07951172 185.93882812 101.07113281 184.875 101.0625 C183.31458984 101.05573242 183.31458984 101.05573242 181.72265625 101.04882812 C179.14841313 101.03701967 176.57419947 101.01908385 174 101 C174 105.29 174 109.58 174 114 C175.56492187 113.97679687 177.12984375 113.95359375 178.7421875 113.9296875 C180.78645358 113.91093277 182.8307248 113.89273225 184.875 113.875 C185.90753906 113.85824219 186.94007813 113.84148437 188.00390625 113.82421875 C188.99003906 113.81777344 189.97617187 113.81132812 190.9921875 113.8046875 C192.35899658 113.78897705 192.35899658 113.78897705 193.75341797 113.77294922 C196 114 196 114 198 116 C197.67 117.32 197.34 118.64 197 120 C189.41 120 181.82 120 174 120 C174 124.62 174 129.24 174 134 C175.56492187 133.98839844 177.12984375 133.97679687 178.7421875 133.96484375 C180.78645714 133.95546637 182.83072807 133.94636611 184.875 133.9375 C185.90753906 133.92912109 186.94007813 133.92074219 188.00390625 133.91210938 C189.48310547 133.90727539 189.48310547 133.90727539 190.9921875 133.90234375 C191.90339355 133.89710693 192.81459961 133.89187012 193.75341797 133.88647461 C196 134 196 134 198 135 C198 136.32 198 137.64 198 139 C195.49502996 140.25248502 193.79146726 140.11374406 190.9921875 140.09765625 C190.00605469 140.09443359 189.01992188 140.09121094 188.00390625 140.08789062 C186.97136719 140.07951172 185.93882812 140.07113281 184.875 140.0625 C183.31458984 140.05573242 183.31458984 140.05573242 181.72265625 140.04882812 C179.14841313 140.03701967 176.57419947 140.01908385 174 140 C174 144.62 174 149.24 174 154 C181.59 154 189.18 154 197 154 C197.33 155.32 197.66 156.64 198 158 C196 160 196 160 193.75341797 160.22705078 C192.84221191 160.21657715 191.93100586 160.20610352 190.9921875 160.1953125 C190.00605469 160.18886719 189.01992188 160.18242187 188.00390625 160.17578125 C186.45509766 160.15064453 186.45509766 160.15064453 184.875 160.125 C183.83472656 160.11597656 182.79445313 160.10695312 181.72265625 160.09765625 C179.14834003 160.07403867 176.57414162 160.03816684 174 160 C174 164.62 174 169.24 174 174 C181.59 174 189.18 174 197 174 C197.33 175.32 197.66 176.64 198 178 C197 179 197 179 194.77514648 179.11352539 C193.81680908 179.10828857 192.85847168 179.10305176 191.87109375 179.09765625 C190.31938477 179.09282227 190.31938477 179.09282227 188.73632812 179.08789062 C187.64771484 179.07951172 186.55910156 179.07113281 185.4375 179.0625 C183.7987793 179.05573242 183.7987793 179.05573242 182.12695312 179.04882812 C179.41794568 179.0369984 176.7089662 179.01906231 174 179 C174 183.62 174 188.24 174 193 C175.56492187 192.97679687 177.12984375 192.95359375 178.7421875 192.9296875 C180.78645358 192.91093277 182.8307248 192.89273225 184.875 192.875 C185.90753906 192.85824219 186.94007813 192.84148437 188.00390625 192.82421875 C188.99003906 192.81777344 189.97617187 192.81132812 190.9921875 192.8046875 C191.90339355 192.79421387 192.81459961 192.78374023 193.75341797 192.77294922 C196 193 196 193 198 195 C197.67 196.32 197.34 197.64 197 199 C189.41 199 181.82 199 174 199 C174.19619782 204.89380059 174.19619782 204.89380059 174.45043945 210.78515625 C174.55574288 217.12238446 173.00901365 221.1003404 169 226 C164.51061636 230.61435577 159.33262317 231.22373807 153.16650391 231.3449707 C149.44282372 231.30066497 145.72139224 231.13782934 142 231 C142 238.59 142 246.18 142 254 C140.68 254.33 139.36 254.66 138 255 C136 253 136 253 135.77294922 250.75341797 C135.78865967 249.38660889 135.78865967 249.38660889 135.8046875 247.9921875 C135.81435547 246.51298828 135.81435547 246.51298828 135.82421875 245.00390625 C135.84935547 243.45509766 135.84935547 243.45509766 135.875 241.875 C135.88402344 240.83472656 135.89304687 239.79445313 135.90234375 238.72265625 C135.92596133 236.14834003 135.96183316 233.57414162 136 231 C131.38 231 126.76 231 122 231 C122 238.92 122 246.84 122 255 C120.35 254.67 118.7 254.34 117 254 C117 246.41 117 238.82 117 231 C112.38 231 107.76 231 103 231 C103 238.59 103 246.18 103 254 C101.35 254.33 99.7 254.66 98 255 C96.74751498 252.49502996 96.88625594 250.79146726 96.90234375 247.9921875 C96.90556641 247.00605469 96.90878906 246.01992188 96.91210938 245.00390625 C96.92048828 243.97136719 96.92886719 242.93882812 96.9375 241.875 C96.94201172 240.83472656 96.94652344 239.79445313 96.95117188 238.72265625 C96.96298033 236.14841313 96.98091615 233.57419947 97 231 C92.38 231 87.76 231 83 231 C83 238.59 83 246.18 83 254 C81.68 254.33 80.36 254.66 79 255 C78 254 78 254 77.88647461 251.77514648 C77.89171143 250.81680908 77.89694824 249.85847168 77.90234375 248.87109375 C77.90556641 247.83662109 77.90878906 246.80214844 77.91210938 245.73632812 C77.92048828 244.64771484 77.92886719 243.55910156 77.9375 242.4375 C77.94201172 241.34501953 77.94652344 240.25253906 77.95117188 239.12695312 C77.9630016 236.41794568 77.98093769 233.7089662 78 231 C73.38 231 68.76 231 64 231 C64.02320313 232.56492187 64.04640625 234.12984375 64.0703125 235.7421875 C64.08906723 237.78645358 64.10726775 239.8307248 64.125 241.875 C64.14175781 242.90753906 64.15851563 243.94007813 64.17578125 245.00390625 C64.18222656 245.99003906 64.18867188 246.97617187 64.1953125 247.9921875 C64.20578613 248.90339355 64.21625977 249.81459961 64.22705078 250.75341797 C64 253 64 253 62 255 C60.68 254.67 59.36 254.34 58 254 C58 246.41 58 238.82 58 231 C53.38 231 48.76 231 44 231 C44.01160156 232.56492187 44.02320313 234.12984375 44.03515625 235.7421875 C44.04453363 237.78645714 44.05363389 239.83072807 44.0625 241.875 C44.07087891 242.90753906 44.07925781 243.94007813 44.08789062 245.00390625 C44.09111328 245.99003906 44.09433594 246.97617187 44.09765625 247.9921875 C44.10289307 248.90339355 44.10812988 249.81459961 44.11352539 250.75341797 C44 253 44 253 43 255 C39.125 254.125 39.125 254.125 38 253 C37.91299658 251.36527118 37.89298937 249.72685945 37.90234375 248.08984375 C37.90717773 246.60581055 37.90717773 246.60581055 37.91210938 245.09179688 C37.92467773 243.53041992 37.92467773 243.53041992 37.9375 241.9375 C37.94201172 240.89271484 37.94652344 239.84792969 37.95117188 238.77148438 C37.96300073 236.18096546 37.98093681 233.59047578 38 231 C33.38 231 28.76 231 24 231 C24 238.59 24 246.18 24 254 C22.68 254.33 21.36 254.66 20 255 C19 254 19 254 18.88647461 251.77514648 C18.89432983 250.33764038 18.89432983 250.33764038 18.90234375 248.87109375 C18.90717773 247.31938477 18.90717773 247.31938477 18.91210938 245.73632812 C18.92467773 244.1034082 18.92467773 244.1034082 18.9375 242.4375 C18.94201172 241.34501953 18.94652344 240.25253906 18.95117188 239.12695312 C18.9630016 236.41794568 18.98093769 233.7089662 19 231 C14.38 231 9.76 231 5 231 C5.02320313 232.56492187 5.04640625 234.12984375 5.0703125 235.7421875 C5.08906723 237.78645358 5.10726775 239.8307248 5.125 241.875 C5.14175781 242.90753906 5.15851563 243.94007813 5.17578125 245.00390625 C5.18544922 246.48310547 5.18544922 246.48310547 5.1953125 247.9921875 C5.21102295 249.35899658 5.21102295 249.35899658 5.22705078 250.75341797 C5 253 5 253 3 255 C1.68 254.67 0.36 254.34 -1 254 C-1 246.41 -1 238.82 -1 231 C-6.2799098 231.11772816 -6.2799098 231.11772816 -11.55883789 231.27026367 C-18.10520195 231.34316654 -22.68241261 230.00155275 -27.75 225.625 C-32.82757323 219.70116457 -33.40678894 215.78628216 -33.1875 208.1875 C-33.125625 205.155625 -33.06375 202.12375 -33 199 C-40.59 199 -48.18 199 -56 199 C-57 195 -57 195 -56 193 C-48.41 193 -40.82 193 -33 193 C-33 188.38 -33 183.76 -33 179 C-40.59 179 -48.18 179 -56 179 C-56.33 177.68 -56.66 176.36 -57 175 C-56 174 -56 174 -53.77514648 173.88647461 C-52.81680908 173.89171143 -51.85847168 173.89694824 -50.87109375 173.90234375 C-49.31938477 173.90717773 -49.31938477 173.90717773 -47.73632812 173.91210938 C-46.64771484 173.92048828 -45.55910156 173.92886719 -44.4375 173.9375 C-42.7987793 173.94426758 -42.7987793 173.94426758 -41.12695312 173.95117188 C-38.41794568 173.9630016 -35.7089662 173.98093769 -33 174 C-33 169.38 -33 164.76 -33 160 C-40.59 160 -48.18 160 -56 160 C-56.33 158.35 -56.66 156.7 -57 155 C-56 154 -56 154 -53.77514648 153.88647461 C-52.81680908 153.89171143 -51.85847168 153.89694824 -50.87109375 153.90234375 C-49.31938477 153.90717773 -49.31938477 153.90717773 -47.73632812 153.91210938 C-46.64771484 153.92048828 -45.55910156 153.92886719 -44.4375 153.9375 C-42.7987793 153.94426758 -42.7987793 153.94426758 -41.12695312 153.95117188 C-38.41794568 153.9630016 -35.7089662 153.98093769 -33 154 C-33 149.38 -33 144.76 -33 140 C-40.59 140 -48.18 140 -56 140 C-56.33 138.35 -56.66 136.7 -57 135 C-56 134 -56 134 -53.77514648 133.88647461 C-52.81680908 133.89171143 -51.85847168 133.89694824 -50.87109375 133.90234375 C-49.31938477 133.90717773 -49.31938477 133.90717773 -47.73632812 133.91210938 C-46.64771484 133.92048828 -45.55910156 133.92886719 -44.4375 133.9375 C-42.7987793 133.94426758 -42.7987793 133.94426758 -41.12695312 133.95117188 C-38.41794568 133.9630016 -35.7089662 133.98093769 -33 134 C-33 129.38 -33 124.76 -33 120 C-40.59 120 -48.18 120 -56 120 C-56.33 118.68 -56.66 117.36 -57 116 C-55 114 -55 114 -52.75341797 113.77294922 C-51.84221191 113.78342285 -50.93100586 113.79389648 -49.9921875 113.8046875 C-48.51298828 113.81435547 -48.51298828 113.81435547 -47.00390625 113.82421875 C-45.45509766 113.84935547 -45.45509766 113.84935547 -43.875 113.875 C-42.31458984 113.88853516 -42.31458984 113.88853516 -40.72265625 113.90234375 C-38.14834003 113.92596133 -35.57414162 113.96183316 -33 114 C-33 109.71 -33 105.42 -33 101 C-40.59 101 -48.18 101 -56 101 C-56.495 98.525 -56.495 98.525 -57 96 C-56 95 -56 95 -53.77514648 94.88647461 C-52.33764038 94.89432983 -52.33764038 94.89432983 -50.87109375 94.90234375 C-49.31938477 94.90717773 -49.31938477 94.90717773 -47.73632812 94.91210938 C-46.64771484 94.92048828 -45.55910156 94.92886719 -44.4375 94.9375 C-42.7987793 94.94426758 -42.7987793 94.94426758 -41.12695312 94.95117188 C-38.41794568 94.9630016 -35.7089662 94.98093769 -33 95 C-33 90.38 -33 85.76 -33 81 C-34.56492187 81.02320313 -36.12984375 81.04640625 -37.7421875 81.0703125 C-39.78645358 81.08906723 -41.8307248 81.10726775 -43.875 81.125 C-44.90753906 81.14175781 -45.94007812 81.15851563 -47.00390625 81.17578125 C-47.99003906 81.18222656 -48.97617188 81.18867188 -49.9921875 81.1953125 C-50.90339355 81.20578613 -51.81459961 81.21625977 -52.75341797 81.22705078 C-55 81 -55 81 -57 79 C-56.67 77.68 -56.34 76.36 -56 75 C-48.41 75 -40.82 75 -33 75 C-33 70.38 -33 65.76 -33 61 C-40.59 61 -48.18 61 -56 61 C-56.33 59.68 -56.66 58.36 -57 57 C-56 56 -56 56 -53.77514648 55.88647461 C-52.81680908 55.89171143 -51.85847168 55.89694824 -50.87109375 55.90234375 C-49.83662109 55.90556641 -48.80214844 55.90878906 -47.73632812 55.91210938 C-46.64771484 55.92048828 -45.55910156 55.92886719 -44.4375 55.9375 C-42.7987793 55.94426758 -42.7987793 55.94426758 -41.12695312 55.95117188 C-38.41791505 55.96300174 -35.70898401 55.97948457 -33 56 C-33.05800781 54.73285156 -33.11601563 53.46570313 -33.17578125 52.16015625 C-33.69952245 36.01707493 -33.69952245 36.01707493 -29.77734375 29.69140625 C-24.56185278 24.72809287 -20.29825488 23.54553839 -13.27539062 23.6484375 C-11.93250977 23.69871094 -11.93250977 23.69871094 -10.5625 23.75 C-9.64017578 23.76804687 -8.71785156 23.78609375 -7.76757812 23.8046875 C-5.51061267 23.85146399 -3.25587388 23.91698129 -1 24 C-1.00523682 23.30849854 -1.01047363 22.61699707 -1.01586914 21.90454102 C-1.036575 18.79053648 -1.04963963 15.67654639 -1.0625 12.5625 C-1.07087891 11.47388672 -1.07925781 10.38527344 -1.08789062 9.26367188 C-1.09111328 8.22919922 -1.09433594 7.19472656 -1.09765625 6.12890625 C-1.10289307 5.17056885 -1.10812988 4.21223145 -1.11352539 3.22485352 C-1 1 -1 1 0 0 Z M-26 35 C-27.49346353 37.98692706 -27.13636152 40.70047746 -27.14717102 44.03363037 C-27.15084771 44.76614525 -27.1545244 45.49866013 -27.1583125 46.25337243 C-27.16937124 48.72067976 -27.17319688 51.18794501 -27.17700195 53.65527344 C-27.18326497 55.41921117 -27.18991162 57.18314757 -27.19691467 58.94708252 C-27.21433981 63.74886211 -27.22488063 68.55063173 -27.2331202 73.35243511 C-27.23826731 76.35125337 -27.24434318 79.35006852 -27.25063133 82.34888458 C-27.26968791 91.72800688 -27.28391787 101.10712128 -27.2922433 110.48625922 C-27.30201747 121.31924848 -27.32833975 132.1520335 -27.36874419 142.98495078 C-27.39888811 151.35359489 -27.41371055 159.72218041 -27.41702431 168.09087777 C-27.41937684 173.09117195 -27.42836344 178.09124805 -27.45348549 183.09148407 C-27.47674095 187.79632283 -27.48100963 192.50079955 -27.47072411 197.20568085 C-27.47022801 198.93183597 -27.47657007 200.65800875 -27.49028015 202.3841095 C-27.50796423 204.74265246 -27.5009111 207.09989127 -27.48774719 209.45843506 C-27.49013555 210.77768856 -27.4925239 212.09694206 -27.49498463 213.45617294 C-26.91291103 217.62351076 -25.63636055 219.75663759 -23 223 C-19.25929511 225.49380326 -17.31942028 225.25603971 -12.84611511 225.26742554 C-12.11274581 225.27195665 -11.3793765 225.27648776 -10.62378389 225.28115618 C-8.1595261 225.29384458 -5.69548807 225.29217697 -3.23120117 225.29052734 C-1.46711441 225.29650989 0.29696974 225.3033148 2.06105042 225.31088257 C6.85865723 225.32857912 11.65619275 225.33323952 16.45382905 225.33451414 C20.45728553 225.33641157 24.46072533 225.34376742 28.4641754 225.35085833 C37.90980063 225.36715428 47.35538772 225.37202624 56.80102539 225.37060547 C66.54687591 225.36940416 76.29250492 225.39050109 86.03829938 225.4220928 C94.40272623 225.4482412 102.76708069 225.45897335 111.13154811 225.45769465 C116.12846098 225.45718453 121.12517714 225.46289501 126.12204933 225.48405075 C130.82281473 225.50340858 135.5231953 225.50357444 140.22397423 225.48901749 C141.94851111 225.48692513 143.67307192 225.49165565 145.39756775 225.5037384 C147.75388578 225.51917748 150.10887474 225.5098928 152.46516418 225.49447632 C153.78311887 225.49556585 155.10107355 225.49665539 156.45896626 225.49777794 C161.22959386 224.82715084 164.42514129 223.07903472 167.35786533 219.20742702 C168.27981128 216.03810988 168.2856187 212.95269265 168.27415466 209.6811676 C168.27939134 208.94215475 168.28462802 208.20314191 168.29002339 207.44173473 C168.30503005 204.96443838 168.30572867 202.48734846 168.30639648 200.01000977 C168.31401742 198.23430024 168.3224448 196.45859402 168.33161926 194.68289185 C168.35357506 189.85856033 168.36236438 185.03429219 168.36744571 180.20991635 C168.37108737 177.19668337 168.37732638 174.18346704 168.3844471 171.1702404 C168.40894335 160.66060531 168.42199431 150.1510196 168.42553711 139.64135742 C168.42917465 129.84032293 168.45908521 120.03960116 168.50094169 110.2386623 C168.5356089 101.82667259 168.55108491 93.41478671 168.55178314 85.00272602 C168.55257704 79.97730365 168.56136783 74.95219992 168.58978081 69.92685127 C168.61590101 65.20139451 168.61820064 60.47652197 168.60212517 55.75102615 C168.60030596 54.01638582 168.60704382 52.28171235 168.62294388 50.54714394 C168.64332618 48.17933909 168.63290148 45.81359362 168.61473083 43.44581604 C168.63453079 42.41536261 168.63453079 42.41536261 168.65473074 41.36409193 C168.58697349 37.50053257 168.0723445 36.08481944 165.52407932 33.0971365 C164.69113315 32.40508145 163.85818697 31.71302641 163 31 C162.67 30.67 162.34 30.34 162 30 C159.64602813 29.89129711 157.32094753 29.84776084 154.96600342 29.84609985 C153.8490784 29.83952647 153.8490784 29.83952647 152.70958924 29.8328203 C150.19538778 29.81938418 147.68122139 29.81324268 145.16699219 29.80712891 C143.3720229 29.79923167 141.57705522 29.79096296 139.78208923 29.78234863 C133.87036668 29.7560829 127.95863688 29.74081568 122.046875 29.7265625 C120.01475265 29.72120454 117.98263036 29.71582704 115.95050812 29.71043015 C107.49908437 29.68879403 99.04766257 29.67005638 90.59621811 29.65880775 C78.46967391 29.64256377 66.34344993 29.6093834 54.21702647 29.55240691 C45.69895186 29.51374448 37.18096301 29.4941794 28.66280293 29.48888719 C23.57136963 29.48522842 18.48027749 29.47315167 13.3889389 29.44078445 C8.59870405 29.41076917 3.80901794 29.40436856 -0.98129082 29.41616821 C-2.74012481 29.4163895 -4.49898378 29.40803871 -6.25773048 29.39051437 C-8.65850748 29.36789393 -11.05728274 29.37608264 -13.45806885 29.39199829 C-14.15486606 29.3781162 -14.85166327 29.36423412 -15.56957555 29.34993136 C-20.71859162 29.434092 -22.81928204 31.06503672 -26 35 Z " fill="#000000" transform="translate(139,57)"/>
<path d="M0 0 C0.79470703 -0.020625 1.58941406 -0.04125 2.40820312 -0.0625 C8.32624865 -0.10165994 12.58288714 0.79827846 17.05078125 5.00390625 C17.52902344 5.60074219 18.00726562 6.19757813 18.5 6.8125 C19.23669922 7.71162109 19.23669922 7.71162109 19.98828125 8.62890625 C22.06115249 11.43099604 22.31520423 13.19391611 22.32794189 16.62615967 C22.33365204 17.54579498 22.33936218 18.4654303 22.34524536 19.41293335 C22.34636322 20.42489777 22.34748108 21.43686218 22.34863281 22.47949219 C22.35608017 24.07481277 22.35608017 24.07481277 22.36367798 25.70236206 C22.37832707 29.23387287 22.38510666 32.76533875 22.390625 36.296875 C22.39637479 38.74586997 22.40213254 41.19486493 22.40789795 43.64385986 C22.41841617 48.78536184 22.42425326 53.92684815 22.42773438 59.06835938 C22.43321666 65.65705649 22.4572358 72.24554668 22.48570633 78.83417892 C22.50433055 83.89565638 22.50953823 88.95708401 22.51107025 94.01859283 C22.51409847 96.44747294 22.52213265 98.87635213 22.53525543 101.30519867 C22.55230875 104.70460224 22.55043698 108.1035007 22.54394531 111.50292969 C22.55776749 113.00873093 22.55776749 113.00873093 22.5718689 114.54495239 C22.53454468 120.78390171 21.87075678 125.34110572 17.46875 130.11328125 C16.8809375 130.59152344 16.293125 131.06976563 15.6875 131.5625 C15.0996875 132.05363281 14.511875 132.54476562 13.90625 133.05078125 C9.65414144 136.01759336 4.83865569 135.50630767 -0.125 135.5625 C-0.96740234 135.59150391 -1.80980469 135.62050781 -2.67773438 135.65039062 C-9.13966133 135.71607088 -12.72589352 134.2486272 -17.45703125 129.65234375 C-20.66892226 125.62405235 -21.93380602 122.8944599 -21.95294189 117.79154968 C-21.95865204 116.87895386 -21.96436218 115.96635803 -21.97024536 115.02610779 C-21.97192215 113.52758018 -21.97192215 113.52758018 -21.97363281 111.9987793 C-21.97859772 110.94483978 -21.98356262 109.89090027 -21.98867798 108.80502319 C-22.00330694 105.31141512 -22.01010286 101.81785245 -22.015625 98.32421875 C-22.02137586 95.89907327 -22.0271336 93.4739278 -22.03289795 91.04878235 C-22.04341004 85.96033516 -22.04925134 80.87190379 -22.05273438 75.78344727 C-22.05821941 69.26315924 -22.082247 62.74308001 -22.11070633 56.22285748 C-22.12932968 51.21199432 -22.13453816 46.20118148 -22.13607025 41.19028664 C-22.13909799 38.78652619 -22.14713058 36.38276666 -22.16025543 33.97904015 C-22.17730909 30.6156666 -22.17543706 27.25280354 -22.16894531 23.8894043 C-22.1781601 22.89645859 -22.18737488 21.90351288 -22.1968689 20.88047791 C-22.15932503 14.67127882 -21.47358903 10.13486243 -17.09375 5.38671875 C-16.5059375 4.90847656 -15.918125 4.43023437 -15.3125 3.9375 C-14.7246875 3.44636719 -14.136875 2.95523438 -13.53125 2.44921875 C-9.38127495 -0.44633202 -4.8387561 0.03094328 0 0 Z " fill="#000000" transform="translate(1031.8125,58.75)"/>
<path d="M0 0 C11 0 11 0 13.55322266 1.45581055 C15.61410964 5.07992517 16.36933389 8.63484915 17.1484375 12.70703125 C17.32654465 13.5729892 17.50465179 14.43894714 17.68815613 15.33114624 C18.26514755 18.15551055 18.82030436 20.98368029 19.375 23.8125 C19.76693018 25.75390832 20.16008533 27.69506973 20.55444336 29.63598633 C21.72421742 35.41986418 22.86466258 41.20928002 24 47 C24.33238993 48.68720002 24.66490329 50.37437572 24.99755859 52.06152344 C26.69823853 60.70144863 28.36818289 69.34677953 30 78 C33.85230456 60.62505833 37.35766032 43.21380478 40.55102539 25.70629883 C44.05015473 6.65596297 44.05015473 6.65596297 46 2 C49 0 49 0 60 0 C60 43.89 60 87.78 60 133 C55.38 133 50.76 133 46 133 C45.67 112.54 45.34 92.08 45 71 C43.68 77.6 42.36 84.2 41 91 C40.039699 94.69346538 39.06074187 98.34075437 38 102 C37.31209722 104.66188465 36.6549638 107.32976296 36 110 C32.10386066 110.30557956 29.6914851 110.39288926 26.25 108.4375 C17.88770411 99.37834611 16.96685499 80.17865663 15 71 C14.67 91.46 14.34 111.92 14 133 C9.38 133 4.76 133 0 133 C0 89.11 0 45.22 0 0 Z " fill="#00000" transform="translate(389,60)"/>
<path d="M0 0 C1.07765625 0.03609375 2.1553125 0.0721875 3.265625 0.109375 C4.08546875 0.15578125 4.9053125 0.2021875 5.75 0.25 C4.52938012 6.85351012 2.9788945 13.25420896 1.0625 19.6875 C-1.45459344 28.31832845 -3.80186881 36.98603645 -6.0625 45.6875 C-6.36438232 46.84241943 -6.66626465 47.99733887 -6.97729492 49.18725586 C-7.25935791 50.27917236 -7.5414209 51.37108887 -7.83203125 52.49609375 C-8.08186768 53.46216553 -8.3317041 54.4282373 -8.58911133 55.42358398 C-9.78184465 60.52453473 -10.58336779 64.29726192 -9.0625 69.390625 C-8.77938965 70.36588135 -8.4962793 71.3411377 -8.20458984 72.34594727 C-7.8895752 73.38678467 -7.57456055 74.42762207 -7.25 75.5 C-6.5948461 77.74304965 -5.94124956 79.98655466 -5.2890625 82.23046875 C-4.95036133 83.38595215 -4.61166016 84.54143555 -4.26269531 85.73193359 C-2.6303956 91.40248296 -1.13322722 97.10795826 0.375 102.8125 C2.67084475 111.44133333 5.12962486 119.98119892 7.90234375 128.46875 C8.75 131.25 8.75 131.25 8.75 133.25 C3.8 133.25 -1.15 133.25 -6.25 133.25 C-10.763463 118.02906626 -14.65881909 102.7136327 -18.25 87.25 C-19.72681678 90.76594454 -20.86212979 94.24781998 -21.8359375 97.93359375 C-22.1251709 99.020354 -22.4144043 100.10711426 -22.71240234 101.22680664 C-23.01355957 102.36883545 -23.3147168 103.51086426 -23.625 104.6875 C-24.24929113 107.02883496 -24.87428586 109.36998243 -25.5 111.7109375 C-25.80035156 112.8359668 -26.10070312 113.96099609 -26.41015625 115.12011719 C-27.45788517 119.02473485 -28.52927491 122.92106456 -29.625 126.8125 C-29.92148437 127.86566406 -30.21796875 128.91882813 -30.5234375 130.00390625 C-31.25 132.25 -31.25 132.25 -32.25 133.25 C-34.94654854 133.32319621 -37.61691458 133.34242537 -40.3125 133.3125 C-41.07111328 133.30798828 -41.82972656 133.30347656 -42.61132812 133.29882812 C-44.49091871 133.2870068 -46.37046899 133.26907078 -48.25 133.25 C-48.06937012 132.66323486 -47.88874023 132.07646973 -47.70263672 131.47192383 C-44.20728875 120.09934662 -40.74426655 108.72120435 -37.53637695 97.26367188 C-36.19004213 92.46907596 -34.77804615 87.70434651 -33.28515625 82.953125 C-32.95708984 81.88892334 -32.62902344 80.82472168 -32.29101562 79.72827148 C-31.6575476 77.67882539 -31.00999074 75.63365906 -30.34570312 73.59399414 C-27.08168903 62.91749167 -29.16697123 54.51331736 -32.375 44.0625 C-32.68195801 43.03455322 -32.98891602 42.00660645 -33.30517578 40.94750977 C-34.91870101 35.56266669 -36.57498004 30.19116608 -38.234375 24.8203125 C-38.55132324 23.79059326 -38.86827148 22.76087402 -39.19482422 21.69995117 C-39.800019 19.73997784 -40.41073379 17.7816976 -41.02783203 15.82543945 C-42.53953896 10.95482349 -43.70708467 6.32417024 -44.25 1.25 C-42.12506859 1.22306425 -40.00004088 1.20363372 -37.875 1.1875 C-36.69164062 1.17589844 -35.50828125 1.16429687 -34.2890625 1.15234375 C-31.25 1.25 -31.25 1.25 -29.25 2.25 C-28.42797852 4.3762207 -28.42797852 4.3762207 -27.62890625 7.17578125 C-27.33306641 8.20123047 -27.03722656 9.22667969 -26.73242188 10.28320312 C-26.42884766 11.36537109 -26.12527344 12.44753906 -25.8125 13.5625 C-25.51279297 14.60212891 -25.21308594 15.64175781 -24.90429688 16.71289062 C-22.8631983 23.85452185 -21.00853567 31.03393982 -19.25 38.25 C-18.49713414 35.58411432 -17.74748661 32.91739531 -17 30.25 C-16.77256104 29.44288574 -16.54512207 28.63577148 -16.31079102 27.80419922 C-15.18298416 23.76272684 -14.1043647 19.72324467 -13.16796875 15.6328125 C-12.91805176 14.55580078 -12.91805176 14.55580078 -12.66308594 13.45703125 C-12.21068724 11.47650965 -11.77481309 9.49223485 -11.33984375 7.5078125 C-9.22168236 1.17610426 -6.53736409 -0.28423322 0 0 Z " fill="#000000" transform="translate(689.25,59.75)"/>
<path d="M0 0 C1.74784467 -0.13560864 3.49873926 -0.23227209 5.25 -0.3125 C6.22453125 -0.37050781 7.1990625 -0.42851563 8.203125 -0.48828125 C11 0 11 0 13.08451843 2.09414673 C15.32596892 5.49450638 15.847347 7.96263162 16.44458008 11.98193359 C16.55108761 12.6687962 16.65759514 13.3556588 16.76733017 14.06333542 C17.11645266 16.33970868 17.44298613 18.61872519 17.76953125 20.8984375 C18.01270052 22.51395037 18.25727241 24.12925266 18.50315857 25.74435425 C19.15640668 30.06119879 19.79033945 34.38067419 20.42048645 38.70094299 C21.07285029 43.15093737 21.74281108 47.59827792 22.41113281 52.04589844 C23.46872928 59.09853749 24.51634399 66.15258102 25.55517578 73.20800781 C26.79961646 81.65953211 28.0641113 90.10783027 29.33984375 98.5546875 C30.53070518 106.45725376 31.72055732 114.35994919 32.890625 122.265625 C33.06313026 123.42081131 33.06313026 123.42081131 33.23912048 124.59933472 C34 129.76735866 34 129.76735866 34 132 C28.72 132 23.44 132 18 132 C17.65388672 128.96232422 17.65388672 128.96232422 17.30078125 125.86328125 C15.47380889 109.95079873 13.52692067 94.05951078 11.375 78.1875 C11.27103912 77.41830231 11.16707825 76.64910461 11.05996704 75.8565979 C9.80002628 66.55555253 8.46552329 57.27120357 7 48 C6.67 48 6.34 48 6 48 C5.90501221 48.84667236 5.81002441 49.69334473 5.7121582 50.56567383 C3.50322014 70.1183808 1.00068217 89.6049415 -1.8515625 109.07421875 C-2.96941573 116.70785559 -3.99484477 124.3506765 -5 132 C-9.95 132 -14.9 132 -20 132 C-19.36179644 123.1485229 -18.26440257 114.46437405 -16.890625 105.69921875 C-16.6794958 104.33336968 -16.46870917 102.96746762 -16.25823975 101.60151672 C-15.70495723 98.01756938 -15.14655539 94.43443769 -14.5871582 90.85144043 C-14.1454673 88.01659079 -13.70753472 85.18116719 -13.26980209 82.34570408 C-11.42061166 70.36938461 -9.55615536 58.39565858 -7.61816406 46.43334961 C-7.50529682 45.73639449 -7.39242958 45.03943937 -7.27614212 44.3213644 C-6.74181398 41.02538576 -6.20492605 37.72986518 -5.66461182 34.43486023 C-4.25514273 25.78631701 -3.00040836 17.12562405 -1.90179443 8.43208313 C-1.09928652 2.19857305 -1.09928652 2.19857305 0 0 Z " fill="#000000" transform="translate(539,61)"/>
<path d="M0 0 C3.96 0 7.92 0 12 0 C15.12781731 8.19496166 16.3918698 16.56306802 17.69921875 25.19140625 C17.94087385 26.74806611 18.1832203 28.30461878 18.42622375 29.86106873 C19.05942354 33.9287798 19.68330997 37.99786472 20.30517578 42.06732178 C20.94320374 46.23130979 21.5901564 50.39391004 22.23632812 54.55664062 C23.49955541 62.7031055 24.75293338 70.85104566 26 79 C28.41040384 75.38439424 28.59988245 72.26743911 29 68.0625 C29.58057685 62.25135581 30.38069192 56.52440522 31.36669922 50.76782227 C32.17592354 45.9533431 32.93368774 41.13140697 33.69140625 36.30859375 C33.9992943 34.35611117 34.30723783 32.40363734 34.61523438 30.45117188 C35.09261835 27.42296044 35.56921562 24.39463384 36.04370117 21.3659668 C36.50727889 18.40897107 36.97406136 15.4524961 37.44140625 12.49609375 C37.58308731 11.58677597 37.72476837 10.67745819 37.8707428 9.74058533 C38.00435715 8.89863113 38.1379715 8.05667694 38.27563477 7.18920898 C38.44978661 6.08101051 38.44978661 6.08101051 38.62745667 4.95042419 C39 3 39 3 40 0 C44.29 0 48.58 0 53 0 C52.40391741 7.09039526 51.62656065 14.09345974 50.546875 21.125 C50.40649811 22.05772232 50.26612122 22.99044464 50.12149048 23.95143127 C49.66709187 26.9680456 49.20852612 29.98401058 48.75 33 C48.11018384 37.23801178 47.4727796 41.47638414 46.8359375 45.71484375 C46.59848312 47.29301125 46.59848312 47.29301125 46.35623169 48.90306091 C45.08002842 57.40814406 43.86546927 65.92094825 42.67260742 74.43804932 C40.85157855 87.43734218 38.84447617 100.39128981 36.61083984 113.32641602 C35.54201756 119.54426117 34.6159083 125.72041322 34 132 C24.89374379 132.62562066 24.89374379 132.62562066 21.5 130.25 C19.12981862 126.69472792 17.77108493 123.63842508 17.0703125 119.4140625 C16.91723633 118.50108398 16.76416016 117.58810547 16.60644531 116.64746094 C16.44756836 115.65004883 16.28869141 114.65263672 16.125 113.625 C15.86348145 112.02060059 15.86348145 112.02060059 15.59667969 110.38378906 C14.14933335 101.32679116 12.95734335 92.24345185 11.78613281 83.14746094 C10.0197479 69.69265475 7.94638791 56.28573586 5.875 42.875 C5.69892212 41.73349487 5.52284424 40.59198975 5.34143066 39.41589355 C4.83055812 36.10777668 4.31811072 32.79990941 3.8046875 29.4921875 C3.65270905 28.51186554 3.50073059 27.53154358 3.34414673 26.52151489 C3.12327896 25.10490067 3.12327896 25.10490067 2.89794922 23.65966797 C2.75403748 22.73635681 2.61012573 21.81304565 2.46185303 20.86175537 C2.13688021 18.84814356 1.79575982 16.83710427 1.44293213 14.82818604 C1.25954285 13.78160828 1.07615356 12.73503052 0.88720703 11.65673828 C0.71786652 10.71629669 0.548526 9.7758551 0.37405396 8.80691528 C0 6 0 6 0 0 Z " fill="#000000" transform="translate(879,61)"/>
<path d="M0 0 C1.18632523 -0.00281982 2.37265045 -0.00563965 3.59492493 -0.00854492 C4.90821274 -0.00652069 6.22150055 -0.00449646 7.57458496 -0.00241089 C8.96225531 -0.00376491 10.3499253 -0.00554484 11.7375946 -0.00772095 C15.51641654 -0.01229524 19.2952113 -0.01050574 23.07403374 -0.00734186 C27.02005972 -0.00481824 30.9660833 -0.0071558 34.91210938 -0.00872803 C41.54000264 -0.01054972 48.16788479 -0.00814343 54.79577637 -0.00338745 C62.46940137 0.00205517 70.14299981 0.00029251 77.81662416 -0.00521386 C84.39325326 -0.00974501 90.96987434 -0.01039553 97.5465045 -0.00777519 C101.47960057 -0.00621242 105.41268414 -0.00601863 109.34577942 -0.00931168 C113.04258283 -0.01219042 116.73935183 -0.01021465 120.4361515 -0.00441742 C122.44817176 -0.00245419 124.46019492 -0.0054437 126.47221375 -0.00854492 C127.65853897 -0.0057251 128.8448642 -0.00290527 130.06713867 0 C131.10470055 0.00037703 132.14226242 0.00075405 133.21126556 0.0011425 C135.53356934 0.12698364 135.53356934 0.12698364 136.53356934 1.12698364 C136.63218972 2.9469487 136.65989068 4.77077931 136.66055298 6.59341431 C136.6633728 7.77973953 136.66619263 8.96606476 136.6690979 10.18833923 C136.66606155 12.15827095 136.66606155 12.15827095 136.66296387 14.16799927 C136.66431788 15.55566962 136.66609782 16.94333961 136.66827393 18.33100891 C136.67284822 22.10983085 136.67105872 25.88862561 136.66789484 29.66744804 C136.66537122 33.61347403 136.66770878 37.55949761 136.66928101 41.50552368 C136.6711027 48.13341695 136.66869641 54.76129909 136.66394043 61.38919067 C136.65849781 69.06281568 136.66026047 76.73641411 136.66576684 84.41003847 C136.67029799 90.98666757 136.6709485 97.56328865 136.66832817 104.1399188 C136.6667654 108.07301488 136.66657161 112.00609845 136.66986465 115.93919373 C136.6727434 119.63599713 136.67076762 123.33276614 136.6649704 127.02956581 C136.66300717 129.04158607 136.66599668 131.05360922 136.6690979 133.06562805 C136.66627808 134.25195328 136.66345825 135.4382785 136.66055298 136.66055298 C136.65998744 138.21689579 136.65998744 138.21689579 136.65941048 139.80467987 C136.53356934 142.12698364 136.53356934 142.12698364 135.53356934 143.12698364 C133.71360428 143.22560402 131.88977367 143.25330498 130.06713867 143.25396729 C128.88081345 143.25678711 127.69448822 143.25960693 126.47221375 143.26251221 C125.15892593 143.26048798 123.84563812 143.25846375 122.49255371 143.25637817 C121.10488336 143.25773219 119.71721337 143.25951212 118.32954407 143.26168823 C114.55072213 143.26626252 110.77192737 143.26447303 106.99310493 143.26130915 C103.04707895 143.25878552 99.10105537 143.26112309 95.1550293 143.26269531 C88.52713603 143.264517 81.89925389 143.26211072 75.2713623 143.25735474 C67.5977373 143.25191212 59.92413887 143.25367477 52.25051451 143.25918114 C45.67388541 143.26371229 39.09726433 143.26436281 32.52063417 143.26174247 C28.5875381 143.26017971 24.65445453 143.25998591 20.72135925 143.26327896 C17.02455584 143.2661577 13.32778684 143.26418193 9.63098717 143.2583847 C7.61896691 143.25642148 5.60694375 143.25941099 3.59492493 143.26251221 C2.4085997 143.25969238 1.22227448 143.25687256 0 143.25396729 C-1.03756187 143.25359026 -2.07512375 143.25321323 -3.14412689 143.25282478 C-5.46643066 143.12698364 -5.46643066 143.12698364 -6.46643066 142.12698364 C-6.56505104 140.30701859 -6.592752 138.48318798 -6.59341431 136.66055298 C-6.59623413 135.47422775 -6.59905396 134.28790253 -6.60195923 133.06562805 C-6.599935 131.75234024 -6.59791077 130.43905243 -6.5958252 129.08596802 C-6.59717921 127.69829767 -6.59895915 126.31062768 -6.60113525 124.92295837 C-6.60570955 121.14413644 -6.60392005 117.36534168 -6.60075617 113.58651924 C-6.59823254 109.64049326 -6.60057011 105.69446967 -6.60214233 101.7484436 C-6.60396402 95.12055034 -6.60155774 88.49266819 -6.59680176 81.86477661 C-6.59135914 74.19115161 -6.59312179 66.51755317 -6.59862816 58.84392881 C-6.60315931 52.26729972 -6.60380983 45.69067864 -6.60118949 39.11404848 C-6.59962673 35.18095241 -6.59943294 31.24786884 -6.60272598 27.31477356 C-6.60560473 23.61797015 -6.60362895 19.92120115 -6.59783173 16.22440147 C-6.5958685 14.21238121 -6.59885801 12.20035806 -6.60195923 10.18833923 C-6.5991394 9.00201401 -6.59631958 7.81568878 -6.59341431 6.59341431 C-6.59284877 5.0370715 -6.59284877 5.0370715 -6.5922718 3.44928741 C-6.35230193 -0.97917654 -3.86417044 0.00140415 0 0 Z M-0.46643066 5.12698364 C-0.46643066 48.68698364 -0.46643066 92.24698364 -0.46643066 137.12698364 C42.76356934 137.12698364 85.99356934 137.12698364 130.53356934 137.12698364 C130.53356934 93.56698364 130.53356934 50.00698364 130.53356934 5.12698364 C87.30356934 5.12698364 44.07356934 5.12698364 -0.46643066 5.12698364 Z " fill="#000000" transform="translate(144.4664306640625,112.87301635742188)"/>
<path d="M0 0 C8 0 8 0 9.90234375 1.12890625 C11.39507315 3.6734521 11.95023348 6.05110068 12.5625 8.9375 C12.81128906 10.10023438 13.06007812 11.26296875 13.31640625 12.4609375 C14.12340526 16.63888668 14.80516992 20.82857613 15.46875 25.03125 C16.19417872 29.08511639 17.2328415 33.03590616 18.26953125 37.01953125 C19.40194305 41.64001364 20.21520855 46.30971701 21 51 C24.99406694 39.96876749 26.94538401 28.52712731 28.94091797 17.00195312 C31.45362597 2.54637403 31.45362597 2.54637403 33 1 C35.97 1 38.94 1 42 1 C42 31.36 42 61.72 42 93 C39.03 93 36.06 93 33 93 C32.67 78.81 32.34 64.62 32 50 C30.02 59.24 28.04 68.48 26 78 C19 77 19 77 17.14916992 75.23535156 C15.94530872 72.89361518 15.22069527 70.79536385 14.61328125 68.234375 C14.41774658 67.43225586 14.22221191 66.63013672 14.02075195 65.80371094 C13.67016724 64.29212402 13.67016724 64.29212402 13.3125 62.75 C12.549375 59.5325 11.78625 56.315 11 53 C10.67 66.53 10.34 80.06 10 94 C6.7 94 3.4 94 0 94 C0 62.98 0 31.96 0 0 Z " fill="#000000" transform="translate(187,134)"/>
<path d="M0 0 C0.71220703 -0.02449219 1.42441406 -0.04898438 2.15820312 -0.07421875 C5.78408661 -0.09434391 7.96467455 0.23810859 11.07421875 2.1484375 C15.07386866 6.36248639 15.44065043 9.49128737 15.4621582 15.26733398 C15.4698246 16.29491821 15.4698246 16.29491821 15.47764587 17.34326172 C15.49151972 19.6026285 15.49058683 21.86168949 15.48828125 24.12109375 C15.49216938 25.69523736 15.4965043 27.26937991 15.50126648 28.84352112 C15.50872391 32.14123945 15.50844088 35.4388507 15.50317383 38.73657227 C15.49737958 42.95783209 15.51431111 47.17865308 15.5375185 51.39984035 C15.55226639 54.65040133 15.55312612 57.90085688 15.55000877 61.15144539 C15.55052145 62.70753918 15.55574915 64.26363896 15.56582069 65.81970024 C15.57818876 67.99784554 15.57139211 70.17513932 15.55981445 72.35327148 C15.56044388 73.59141098 15.5610733 74.82955048 15.5617218 76.10520935 C15.15398971 79.66779866 14.31493192 81.52125991 12.1875 84.375 C7.44733114 88.06990085 3.11234628 87.92844675 -2.703125 87.796875 C-7.29836092 87.17340078 -8.85360187 85.89368967 -11.8125 82.375 C-14.10185767 78.82252278 -14.07686631 75.76507238 -14.10302734 71.59033203 C-14.10974457 70.91663574 -14.11646179 70.24293945 -14.12338257 69.54882812 C-14.14234473 67.32674741 -14.14628583 65.10496904 -14.1484375 62.8828125 C-14.1548668 61.33348467 -14.16159526 59.78415806 -14.16860962 58.23483276 C-14.18057799 54.98839504 -14.18429092 51.74206369 -14.18310547 48.49560547 C-14.18290233 44.34383447 -14.21020057 40.19274837 -14.24464989 36.0411396 C-14.26693209 32.84114474 -14.27094261 29.64131434 -14.26988602 26.44124985 C-14.27224014 24.91108719 -14.28105312 23.38091988 -14.29655075 21.85083389 C-14.31623846 19.70622618 -14.31036362 17.56309054 -14.29833984 15.41845703 C-14.30118988 14.20030304 -14.30403992 12.98214905 -14.30697632 11.7270813 C-13.00239678 2.88326714 -8.17215701 0.01455415 0 0 Z " fill="#000000" transform="translate(484.8125,219.625)"/>
<path d="M0 0 C1.00933594 -0.01836914 1.00933594 -0.01836914 2.0390625 -0.03710938 C8.67317163 -0.05669828 8.67317163 -0.05669828 11.625 2.1875 C14.6362926 6.25925378 15.00738417 9.25669939 15.02905273 14.26928711 C15.03591599 14.96263657 15.04277924 15.65598602 15.04985046 16.37034607 C15.06808446 18.65205628 15.06428604 20.93307663 15.05859375 23.21484375 C15.06315731 24.80758385 15.06846341 26.40032197 15.07447815 27.99305725 C15.08340262 31.32772837 15.08099393 34.66215992 15.07104492 37.99682617 C15.05955775 42.2618197 15.07976552 46.52598497 15.10896206 50.79086971 C15.12734382 54.07924111 15.12702769 57.36741476 15.12132454 60.65582466 C15.12117156 62.22784143 15.12719697 63.7998718 15.13961601 65.37183952 C15.15456205 67.57385476 15.14382476 69.77434939 15.12670898 71.97631836 C15.12654282 73.22698593 15.12637665 74.4776535 15.12620544 75.76622009 C14.53153901 79.82547431 13.15146841 81.99538787 10.625 85.1875 C5.87148496 88.6473369 -0.80991709 87.87795694 -6.375 87.1875 C-9.23717982 85.83446954 -10.28938241 84.67865434 -12.375 82.1875 C-13.5403138 78.69155859 -13.52351438 75.91501839 -13.55200195 72.22509766 C-13.56185875 71.16847176 -13.56185875 71.16847176 -13.57191467 70.09049988 C-13.59161544 67.76085297 -13.60330193 65.43127037 -13.61328125 63.1015625 C-13.61735678 62.30517742 -13.6214323 61.50879234 -13.62563133 60.68827438 C-13.64647657 56.47447724 -13.66078595 52.26071253 -13.67016602 48.046875 C-13.68123797 43.69661121 -13.7156509 39.34685787 -13.75533772 34.99677467 C-13.78148671 31.64929252 -13.78985621 28.30193245 -13.79344749 24.95435715 C-13.79831654 23.35078858 -13.80993968 21.74722558 -13.82848549 20.14375687 C-13.85284572 17.89832323 -13.85191864 15.65421685 -13.8449707 13.40869141 C-13.85083694 12.13200592 -13.85670319 10.85532043 -13.86274719 9.53994751 C-13.29096948 5.60993048 -12.14421653 3.977263 -9.375 1.1875 C-6.37200345 -0.31399828 -3.29023309 0.00311575 0 0 Z " fill="#000000" transform="translate(874.375,219.8125)"/>
<path d="M0 0 C6 0 6 0 8.24121094 0.93481445 C11.03069378 4.21024968 11.39354244 7.88084924 12.140625 12.04296875 C12.2938623 12.82627563 12.44709961 13.60958252 12.60498047 14.41662598 C13.17126452 17.33682806 13.70893423 20.2625204 14.25 23.1875 C15.4875 29.725625 16.725 36.26375 18 43 C18.33 28.81 18.66 14.62 19 0 C21.97 0 24.94 0 28 0 C28 28.38 28 56.76 28 86 C21 86 21 86 19.15625 84.33325195 C17.89016377 81.77835625 17.14634594 79.44643872 16.5 76.66796875 C16.2525 75.62060547 16.005 74.57324219 15.75 73.49414062 C15.5025 72.40294922 15.255 71.31175781 15 70.1875 C14.7525 69.13884766 14.505 68.09019531 14.25 67.00976562 C12.31288766 58.70136972 10.67468227 50.37341135 9 42 C8.67 56.52 8.34 71.04 8 86 C5.36 86 2.72 86 0 86 C0 57.62 0 29.24 0 0 Z " fill="#000000" transform="translate(944,220)"/>
<path d="M0 0 C2.15905762 1.4041748 2.15905762 1.4041748 4 4 C4.6032225 7.27763798 4.54614244 10.52089146 4.51757812 13.84570312 C4.5245874 14.84447983 4.53159668 15.84325653 4.53881836 16.87229919 C4.5564313 20.17556516 4.54476344 23.47797524 4.53125 26.78125 C4.53394395 29.07523768 4.53782556 31.36922424 4.54284668 33.66320801 C4.54874622 38.47170886 4.54016378 43.27991258 4.52148438 48.08837891 C4.49869495 54.25586854 4.51181554 60.42266195 4.53577423 66.59012604 C4.55021966 71.32730365 4.5456319 76.06431585 4.53526306 80.80149841 C4.53259232 83.07572003 4.53587768 85.34995661 4.54518127 87.62416077 C4.55532584 90.80127819 4.53987411 93.97726388 4.51757812 97.15429688 C4.52567505 98.09675766 4.53377197 99.03921844 4.54211426 100.01023865 C4.45920849 106.37832723 4.45920849 106.37832723 2.09265137 109.58215332 C-0.16812818 111.1139129 -1.29442498 111.54227461 -4 111.5 C-4.66 111.5103125 -5.32 111.520625 -6 111.53125 C-9.0926008 110.70977791 -10.08676857 109.59246037 -12 107 C-12.60549023 103.71828788 -12.53580123 100.467376 -12.50170898 97.13842773 C-12.50711197 96.13804474 -12.51251495 95.13766174 -12.51808167 94.10696411 C-12.53059341 90.79887346 -12.51406226 87.49164884 -12.49609375 84.18359375 C-12.49624867 81.88721165 -12.49773645 79.59082929 -12.50050354 77.29444885 C-12.50188859 72.48174482 -12.48931034 67.66933842 -12.46655273 62.85668945 C-12.43815214 56.68022135 -12.44090849 50.50424733 -12.45364285 44.32774258 C-12.46058901 39.58632671 -12.45282313 34.84502557 -12.44038582 30.10362434 C-12.43586212 27.82579043 -12.4355425 25.54794423 -12.43945122 23.27010918 C-12.44235338 20.09054066 -12.42590424 16.91165952 -12.40405273 13.73217773 C-12.40855438 12.78612167 -12.41305603 11.84006561 -12.41769409 10.86534119 C-12.40778946 10.00033997 -12.39788483 9.13533875 -12.38768005 8.24412537 C-12.38525016 7.4925286 -12.38282026 6.74093184 -12.38031673 5.96655941 C-11.89017554 3.4321146 -11.01538886 2.57187192 -9 1 C-5.68377419 -0.1054086 -3.47482175 -0.35457365 0 0 Z " fill="#FFFFFF" transform="translate(1036,71)"/>
<path d="M0 0 C1.79133978 -0.05391993 3.58313899 -0.09275571 5.375 -0.125 C6.37273438 -0.14820313 7.37046875 -0.17140625 8.3984375 -0.1953125 C11 0 11 0 13 2 C13.24609566 4.27635384 13.24609566 4.27635384 13.24050903 7.17581177 C13.24325836 8.27240112 13.24600769 9.36899048 13.24884033 10.49880981 C13.24164978 11.70721527 13.23445923 12.91562073 13.22705078 14.16064453 C13.22734283 15.42890076 13.22763489 16.69715698 13.22793579 18.00384521 C13.22851097 21.48714308 13.21673007 24.97030394 13.20278788 28.45356989 C13.19030796 32.09175076 13.18911219 35.72993457 13.18673706 39.36813354 C13.18051421 46.26004455 13.16409256 53.15189232 13.14403808 60.04377544 C13.12170406 67.88888736 13.11069195 75.73400226 13.10064721 83.57913804 C13.079727 99.71946242 13.04453545 115.85972315 13 132 C11.02090602 132.02686553 9.04171029 132.04633375 7.0625 132.0625 C5.96035156 132.07410156 4.85820313 132.08570313 3.72265625 132.09765625 C1 132 1 132 0 131 C-0.09619441 129.30441297 -0.12187659 127.6047916 -0.12025452 125.90647888 C-0.12162918 124.80285004 -0.12300385 123.69922119 -0.12442017 122.56214905 C-0.12082489 121.34079758 -0.11722961 120.11944611 -0.11352539 118.86108398 C-0.11367142 117.58322021 -0.11381744 116.30535645 -0.1139679 114.98876953 C-0.11425585 111.47446409 -0.1083594 107.9601925 -0.10139394 104.44589496 C-0.09516012 100.77700644 -0.09455658 97.10811723 -0.09336853 93.43922424 C-0.0902553 86.48709565 -0.08204202 79.5349827 -0.07201904 72.58286101 C-0.06085766 64.6700522 -0.05534739 56.75724266 -0.05032361 48.84442794 C-0.0398594 32.56294279 -0.02226011 16.28147339 0 0 Z " fill="#000000" transform="translate(782,61)"/>
<path d="M0 0 C2.05078125 0.03255208 4.1015625 0.06510417 6.15234375 0.09765625 C6.16265121 1.0600975 6.17295868 2.02253876 6.18357849 3.0141449 C6.28114394 12.06432713 6.38386158 21.11443802 6.49168301 30.16450405 C6.54695382 34.81773394 6.60038033 39.47097006 6.6496582 44.12426758 C6.6972406 48.61115742 6.74958092 53.09796837 6.8052845 57.58476448 C6.82573591 59.3004365 6.84444428 61.01613018 6.86141777 62.73184013 C6.8854004 65.12656394 6.91546287 67.52113727 6.94702148 69.91577148 C6.95277695 70.63218307 6.95853241 71.34859467 6.96446228 72.0867157 C6.7347255 75.37522574 6.7347255 75.37522574 8.15234375 78.09765625 C11.61734375 77.60265625 11.61734375 77.60265625 15.15234375 77.09765625 C15.48234375 51.68765625 15.81234375 26.27765625 16.15234375 0.09765625 C19.12234375 0.09765625 22.09234375 0.09765625 25.15234375 0.09765625 C25.2218767 10.18119514 25.27517179 20.26467692 25.30778027 30.34840679 C25.32343129 35.03077861 25.34465931 39.71298631 25.37866211 44.39526367 C25.41127561 48.91455001 25.429201 53.43367856 25.43697548 57.9530735 C25.44251541 59.67664893 25.45333359 61.40021579 25.46953392 63.12372398 C25.49133488 65.53929635 25.4943096 67.95421801 25.49291992 70.36987305 C25.50370575 71.08125427 25.51449158 71.7926355 25.52560425 72.52557373 C25.49220237 77.89691318 24.12902033 81.05374577 20.4296875 84.87890625 C17.15459729 86.63161319 14.40859814 86.56836979 10.71484375 86.59765625 C9.41675781 86.62859375 8.11867188 86.65953125 6.78125 86.69140625 C2.34922284 85.96625218 0.96329005 84.50231644 -1.84765625 81.09765625 C-2.17765625 80.76765625 -2.50765625 80.43765625 -2.84765625 80.09765625 C-2.94797505 77.63860404 -2.98383805 75.20762197 -2.97705078 72.74804688 C-2.9788031 71.97897507 -2.98055542 71.20990326 -2.98236084 70.41752625 C-2.98677965 67.86296362 -2.98384127 65.30846964 -2.98046875 62.75390625 C-2.98114178 60.98653144 -2.9821118 59.21915672 -2.98336792 57.45178223 C-2.98484493 53.74274822 -2.98269023 50.03373825 -2.97802734 46.32470703 C-2.97233005 41.55943132 -2.97560904 36.79421193 -2.98159981 32.02893829 C-2.98520533 28.37794568 -2.98406687 24.72696652 -2.98147202 21.07597351 C-2.98080272 19.31841526 -2.98163125 17.5608558 -2.98395157 15.80329895 C-2.98647796 13.35125471 -2.98263771 10.89930294 -2.97705078 8.44726562 C-2.97907501 7.7137236 -2.98109924 6.98018158 -2.98318481 6.22441101 C-2.95744039 0.15631292 -2.95744039 0.15631292 0 0 Z " fill="#000000" transform="translate(633.84765625,219.90234375)"/>
<path d="M0 0 C2.60047388 1.41473921 3.33833502 2.47673095 5 5 C5.33 5.33 5.66 5.66 6 6 C6.07244053 8.01964199 6.08377188 10.04167124 6.0625 12.0625 C6.05347656 13.16722656 6.04445313 14.27195313 6.03515625 15.41015625 C6.02355469 16.26480469 6.01195312 17.11945313 6 18 C-0.75 22 -0.75 22 -3 22 C-3.495 15.565 -3.495 15.565 -4 9 C-5.65 8.67 -7.3 8.34 -9 8 C-11.71445277 10.71445277 -11.33066567 12.27191438 -11.375 16.0625 C-11.40335937 17.14660156 -11.43171875 18.23070312 -11.4609375 19.34765625 C-10.44558459 27.39303735 -5.73229537 34.57020802 -1.9375 41.625 C-0.26478435 44.73679791 1.38117806 47.85984573 3 51 C3.5878125 52.11890625 4.175625 53.2378125 4.78125 54.390625 C6.45731171 59.35434622 6.4756073 63.921622 6.4375 69.125 C6.45748047 70.10082031 6.47746094 71.07664062 6.49804688 72.08203125 C6.49506512 76.45327782 6.45145693 79.22408941 4.22265625 83.0546875 C-0.30370218 87.01624549 -3.70045165 87.37914511 -9.59375 87.2578125 C-14.06603775 86.77863881 -17.17866022 84.38560774 -20 81 C-21.10261088 77.69216735 -21.23740779 75.04440731 -21.3125 71.5625 C-21.36857422 69.86287109 -21.36857422 69.86287109 -21.42578125 68.12890625 C-21 65 -21 65 -19.29296875 62.65234375 C-16.79728002 60.85391729 -15.03216485 60.33690721 -12 60 C-11.95101563 61.13179688 -11.90203125 62.26359375 -11.8515625 63.4296875 C-11.77653486 64.91148339 -11.70098703 66.393253 -11.625 67.875 C-11.5940625 68.62136719 -11.563125 69.36773437 -11.53125 70.13671875 C-11.44356169 74.53473188 -11.44356169 74.53473188 -9 78 C-6.39719432 77.67958603 -6.39719432 77.67958603 -4 77 C-2.94680946 64.36171352 -4.36861435 55.88402598 -10.84033203 44.97314453 C-12.42875432 42.2704858 -13.90307002 39.51227164 -15.375 36.74487305 C-16.06539773 35.44863226 -16.76418155 34.15681102 -17.47265625 32.87036133 C-20.61699838 27.10813069 -21.22279755 22.64337814 -21.3125 16.125 C-21.34150391 15.43019531 -21.37050781 14.73539063 -21.40039062 14.01953125 C-21.46391191 8.83033068 -20.28772297 5.96896286 -17 2 C-11.92618672 -1.38254219 -5.91745986 -0.70594258 0 0 Z " fill="#000000" transform="translate(410,220)"/>
<path d="M0 0 C3.33329536 1.61650076 5.32109727 3.64219453 7 7 C7.50440511 11.28330893 7.81920188 14.81670839 5.3125 18.4375 C3 20 3 20 -2 22 C-2.33 17.38 -2.66 12.76 -3 8 C-4.98 8 -6.96 8 -9 8 C-10.95207636 9.95207636 -10.26376724 13.4145988 -10.3125 16 C-10.34988281 17.27875 -10.38726563 18.5575 -10.42578125 19.875 C-9.95754168 29.25104712 -3.25534268 38.31910559 1.109375 46.359375 C5.25381865 54.12737593 7.35162096 60.76028396 7.3125 69.5625 C7.32861328 70.29146484 7.34472656 71.02042969 7.36132812 71.77148438 C7.36565617 76.57994198 6.5952088 79.81356829 4 84 C0.11353244 87.64356334 -4.25413824 87.49929326 -9.3359375 87.35546875 C-13.08369069 86.85540198 -15.24202151 85.5458263 -18 83 C-20.43910994 79.3625817 -20.39846861 75.79816214 -20.5 71.5 C-20.5515625 70.1903125 -20.603125 68.880625 -20.65625 67.53125 C-20 64 -20 64 -17.15625 61.53125 C-14 60 -14 60 -11 60 C-10.93941406 61.21558594 -10.87882812 62.43117188 -10.81640625 63.68359375 C-10.73201668 65.26824228 -10.6473679 66.85287702 -10.5625 68.4375 C-10.52318359 69.23994141 -10.48386719 70.04238281 -10.44335938 70.86914062 C-10.5945704 74.75239561 -10.5945704 74.75239561 -9 78 C-6.5 78.16666667 -6.5 78.16666667 -4 78 C-1.69314231 75.69314231 -2.44896573 70.28730786 -2.40625 67.12133789 C-2.60896583 58.91725948 -5.79032646 52.99891287 -9.84033203 46.03662109 C-11.84682493 42.51279715 -13.63135028 38.87931509 -15.4375 35.25 C-15.77910156 34.58218506 -16.12070313 33.91437012 -16.47265625 33.22631836 C-20.80628099 24.66586807 -22.10272576 13.62794664 -19.15234375 4.328125 C-14.8544205 -2.03332714 -6.81939227 -1.17826186 0 0 Z " fill="#000000" transform="translate(1047,220)"/>
<path d="M0 0 C1.51289503 0.00031716 3.0258126 0.01164445 4.53857422 0.03173828 C5.33480194 0.03456818 6.13102966 0.03739807 6.9513855 0.04031372 C9.49882935 0.05152438 12.04592383 0.07663016 14.59326172 0.10205078 C16.31851706 0.11207945 18.04377791 0.1212055 19.76904297 0.12939453 C24.00225086 0.15146656 28.23519702 0.18600212 32.46826172 0.22705078 C31.28150106 4.33506845 30.57377838 6.12153412 27.46826172 9.22705078 C23.83826172 9.55705078 20.20826172 9.88705078 16.46826172 10.22705078 C16.13826172 35.30705078 15.80826172 60.38705078 15.46826172 86.22705078 C12.82826172 86.22705078 10.18826172 86.22705078 7.46826172 86.22705078 C7.46826172 60.81705078 7.46826172 35.40705078 7.46826172 9.22705078 C3.17826172 9.22705078 -1.11173828 9.22705078 -5.53173828 9.22705078 C-5.65673828 5.85205078 -5.65673828 5.85205078 -5.53173828 2.22705078 C-3.53173828 0.22705078 -3.53173828 0.22705078 0 0 Z " fill="#000000" transform="translate(712.53173828125,219.77294921875)"/>
<path d="M0 0 C2.64 0 5.28 0 8 0 C9.67335996 1.67335996 9.11962895 3.71387909 9.12442017 5.94747925 C9.12082489 6.6545401 9.11722961 7.36160095 9.11352539 8.09008789 C9.11367142 8.83150528 9.11381744 9.57292267 9.1139679 10.33680725 C9.11326865 12.79878621 9.10547574 15.26069043 9.09765625 17.72265625 C9.09579211 19.42516539 9.09436819 21.12767507 9.09336853 22.83018494 C9.08954302 27.31993073 9.07971247 31.80964438 9.06866455 36.29937744 C9.05845113 40.87731491 9.05387106 45.45525756 9.04882812 50.03320312 C9.03809022 59.02215184 9.02049316 68.01106822 9 77 C15.6 77 22.2 77 29 77 C27 83 27 83 24 86 C16.08 86 8.16 86 0 86 C0 57.62 0 29.24 0 0 Z " fill="#000000" transform="translate(557,220)"/>
<path d="M0 0 C3.375 -0.125 3.375 -0.125 7 0 C9.53562284 2.53562284 9.23544304 4.12205742 9.24884033 7.57958984 C9.24164978 8.35786133 9.23445923 9.13613281 9.22705078 9.93798828 C9.22734283 10.75758026 9.22763489 11.57717224 9.22793579 12.42160034 C9.22653944 15.13794443 9.21096401 17.85401618 9.1953125 20.5703125 C9.19158345 22.45075328 9.18873597 24.33119599 9.18673706 26.2116394 C9.17909207 31.16665998 9.15943619 36.12156374 9.1373291 41.07653809 C9.11688928 46.1304364 9.10773934 51.18435354 9.09765625 56.23828125 C9.07619109 66.15890555 9.04204474 76.07944307 9 86 C2.84765625 86.09765625 2.84765625 86.09765625 1 86 C-0.7772169 84.2227831 -0.11988099 81.847528 -0.12442017 79.48136902 C-0.12082489 78.69015152 -0.11722961 77.89893402 -0.11352539 77.08374023 C-0.11367142 76.25454071 -0.11381744 75.42534119 -0.1139679 74.5710144 C-0.11326851 71.81684802 -0.10547493 69.06274839 -0.09765625 66.30859375 C-0.09579216 64.40430234 -0.09436822 62.50001045 -0.09336853 60.59571838 C-0.08954263 55.57332037 -0.07971173 50.55095108 -0.06866455 45.52856445 C-0.05845198 40.4077188 -0.05387124 35.28686852 -0.04882812 30.16601562 C-0.03808953 20.11066443 -0.02101224 10.0553346 0 0 Z " fill="#000000" transform="translate(794,220)"/>
<path d="M0 0 C1.63198853 1.12646484 1.63198853 1.12646484 3 3 C3.38095093 5.84619141 3.38095093 5.84619141 3.38818359 9.3515625 C3.39764008 10.66302246 3.40709656 11.97448242 3.4168396 13.32568359 C3.41146992 14.75879213 3.40531698 16.19189792 3.3984375 17.625 C3.40045831 19.09326319 3.40336981 20.5615254 3.40713501 22.02978516 C3.41155806 25.10654255 3.4051282 28.18303861 3.39111328 31.25976562 C3.37402107 35.20440471 3.3838624 39.14843148 3.40183067 43.0930481 C3.41266922 46.12480283 3.40922192 49.15641229 3.4014473 52.18817139 C3.39944547 53.6426399 3.40190398 55.09712158 3.40888596 56.55157471 C3.41650067 58.58385976 3.40283742 60.61619102 3.38818359 62.6484375 C3.38579681 63.80520996 3.38341003 64.96198242 3.38095093 66.15380859 C3 69 3 69 1.63198853 70.87353516 C-0.71107298 72.49081148 -2.2182252 72.41726622 -5 72 C-6.63198853 70.87353516 -6.63198853 70.87353516 -8 69 C-8.38095093 66.15380859 -8.38095093 66.15380859 -8.38818359 62.6484375 C-8.39764008 61.33697754 -8.40709656 60.02551758 -8.4168396 58.67431641 C-8.41146992 57.24120787 -8.40531698 55.80810208 -8.3984375 54.375 C-8.40045831 52.90673681 -8.40336981 51.4384746 -8.40713501 49.97021484 C-8.41155806 46.89345745 -8.4051282 43.81696139 -8.39111328 40.74023438 C-8.37402107 36.79559529 -8.3838624 32.85156852 -8.40183067 28.9069519 C-8.41266922 25.87519717 -8.40922192 22.84358771 -8.4014473 19.81182861 C-8.39944547 18.3573601 -8.40190398 16.90287842 -8.40888596 15.44842529 C-8.41650067 13.41614024 -8.40283742 11.38380898 -8.38818359 9.3515625 C-8.38579681 8.19479004 -8.38341003 7.03801758 -8.38095093 5.84619141 C-8 3 -8 3 -6.63198853 1.12646484 C-4.28892702 -0.49081148 -2.7817748 -0.41726622 0 0 Z " fill="#FFFFFF" transform="translate(488,227)"/>
<path d="M0 0 C2.79622582 2.79622582 2.25358491 4.52081318 2.25878906 8.4375 C2.2622937 9.09782227 2.26579834 9.75814453 2.26940918 10.43847656 C2.27822681 12.62575732 2.27237743 14.81271583 2.265625 17 C2.26697165 18.51692772 2.26891217 20.03385501 2.27142334 21.55078125 C2.27437464 24.73181258 2.27007684 27.91273169 2.26074219 31.09375 C2.24934757 35.17627902 2.25590702 39.25854509 2.26788712 43.34106445 C2.27510561 46.47397858 2.27281786 49.60683011 2.26763153 52.73974609 C2.266295 54.24528026 2.26794288 55.75082007 2.27259064 57.25634766 C2.27765579 59.35855212 2.26994627 61.46032758 2.25878906 63.5625 C2.25640228 65.35880859 2.25640228 65.35880859 2.25396729 67.19140625 C2 70 2 70 0 72 C-3 72.25 -3 72.25 -6 72 C-8.7945902 69.2054098 -8.25959603 67.47741514 -8.2746582 63.5625 C-8.27976913 62.90217773 -8.28488007 62.24185547 -8.29014587 61.56152344 C-8.30407003 59.37425731 -8.30308324 57.18730523 -8.30078125 55 C-8.3046663 53.48307172 -8.30900057 51.96614452 -8.31376648 50.44921875 C-8.3212345 47.26819331 -8.320933 44.08727884 -8.31567383 40.90625 C-8.30987466 36.82363587 -8.32681775 32.74147474 -8.3500185 28.65893555 C-8.36472714 25.52601451 -8.36563156 22.39320335 -8.36250877 19.26025391 C-8.36302332 17.75471091 -8.36828588 16.24916198 -8.37832069 14.74365234 C-8.39061457 12.6412991 -8.38393746 10.53983823 -8.37231445 8.4375 C-8.37294388 7.23996094 -8.3735733 6.04242188 -8.3742218 4.80859375 C-8.25072861 3.88175781 -8.12723541 2.95492187 -8 2 C-4.77626323 -0.14915785 -3.73296326 -0.38286803 0 0 Z " fill="#FFFFFF" transform="translate(878,227)"/>
</svg>
